<svg class="svg-icon" style="width: 1em;height: 1em;vertical-align: middle;fill: currentColor;overflow: hidden;" viewBox="0 0 1024 1024" version="1.1" xmlns="http://www.w3.org/2000/svg"><path d="M398.4 255.8c8.4 0 15.3 6.9 15.3 15.3v225.6c0 8.4-6.9 15.3-15.3 15.3h-127c-8.4 0-15.3-6.9-15.3-15.3V271.1c0-8.4 6.9-15.3 15.3-15.3h127m0-64h-127c-43.8 0-79.3 35.5-79.3 79.3v225.6c0 43.8 35.5 79.3 79.3 79.3h127c43.8 0 79.3-35.5 79.3-79.3V271.1c0-43.8-35.5-79.3-79.3-79.3zM398.4 704c8.4 0 15.3 6.9 15.3 15.3v33.1c0 8.4-6.9 15.3-15.3 15.3h-127c-8.4 0-15.3-6.9-15.3-15.3v-33.1c0-8.4 6.9-15.3 15.3-15.3h127m0-64h-127c-43.8 0-79.3 35.5-79.3 79.3v33.1c0 43.8 35.5 79.3 79.3 79.3h127c43.8 0 79.3-35.5 79.3-79.3v-33.1c0-43.8-35.5-79.3-79.3-79.3zM751.3 511.5c8.4 0 15.3 6.9 15.3 15.3v225.6c0 8.4-6.9 15.3-15.3 15.3h-127c-8.4 0-15.3-6.9-15.3-15.3V526.8c0-8.4 6.9-15.3 15.3-15.3h127m0-64h-127c-43.8 0-79.3 35.5-79.3 79.3v225.6c0 43.8 35.5 79.3 79.3 79.3h127c43.8 0 79.3-35.5 79.3-79.3V526.8c0-43.8-35.5-79.3-79.3-79.3zM751.3 255.8c8.4 0 15.3 6.9 15.3 15.3v33.1c0 8.4-6.9 15.3-15.3 15.3h-127c-8.4 0-15.3-6.9-15.3-15.3v-33.1c0-8.4 6.9-15.3 15.3-15.3h127m0-64h-127c-43.8 0-79.3 35.5-79.3 79.3v33.1c0 43.8 35.5 79.3 79.3 79.3h127c43.8 0 79.3-35.5 79.3-79.3v-33.1c0-43.8-35.5-79.3-79.3-79.3z"  /></svg>