<svg class="svg-icon" style="width: 1em;height: 1em;vertical-align: middle;fill: currentColor;overflow: hidden;" viewBox="0 0 1024 1024" version="1.1" xmlns="http://www.w3.org/2000/svg"><path d="M633.856 403.136A190.784 190.784 0 0 0 704 256c0-105.856-86.144-192-192-192S320 150.144 320 256c0 59.392 27.648 111.872 70.144 147.136A224.128 224.128 0 0 0 256 608v256C256 952.256 327.808 1024 416 1024h192c88.256 0 160-71.744 160-160v-256c0-91.52-55.296-170.112-134.144-204.864zM512 128c70.592 0 128 57.408 128 128s-57.408 128-128 128-128-57.408-128-128 57.408-128 128-128z m192 736c0 52.928-43.072 96-96 96h-192c-52.928 0-96-43.072-96-96v-256C320 519.808 391.808 448 480 448h64C632.256 448 704 519.808 704 608v256zM902.4 473.92c34.88-29.376 57.6-72.832 57.6-121.92C960 263.808 888.256 192 800 192a32 32 0 0 0 0 64c52.928 0 96 43.072 96 96S852.928 448 800 448a32 32 0 0 0 0 64c88.256 0 160 71.744 160 160v192c0 17.6-14.4 32-32 32h-64a32 32 0 0 0 0 64h64c52.928 0 96-43.072 96-96v-192c0-86.4-49.728-160.704-121.6-198.08zM224 448C171.072 448 128 404.928 128 352S171.072 256 224 256a32 32 0 0 0 0-64A160.192 160.192 0 0 0 64 352c0 49.088 22.72 92.544 57.664 121.92C49.728 511.296 0 585.536 0 672v192c0 52.928 43.072 96 96 96h64a32 32 0 0 0 0-64h-64a32 32 0 0 1-32-32v-192C64 583.744 135.808 512 224 512a32 32 0 0 0 0-64z"  /></svg>