<?xml version="1.0" encoding="UTF-8" standalone="no"?>
<svg
   xmlns:dc="http://purl.org/dc/elements/1.1/"
   xmlns:cc="http://creativecommons.org/ns#"
   xmlns:rdf="http://www.w3.org/1999/02/22-rdf-syntax-ns#"
   xmlns:svg="http://www.w3.org/2000/svg"
   xmlns="http://www.w3.org/2000/svg"
   viewBox="0 0 4600 2666.6667"
   height="2666.6667"
   width="4600"
   xml:space="preserve"
   id="svg2"
   version="1.1"><metadata
     id="metadata8"><rdf:RDF><cc:Work
         rdf:about=""><dc:format>image/svg+xml</dc:format><dc:type
           rdf:resource="http://purl.org/dc/dcmitype/StillImage" /></cc:Work></rdf:RDF></metadata><defs
     id="defs6" /><g
     transform="matrix(1.3333333,0,0,-1.3333333,0,2666.6667)"
     id="g10"><g
       transform="scale(0.1)"
       id="g12"><g
         transform="scale(2.11656)"
         id="g14"><path
           id="path16"
           style="fill:#ffffff;fill-opacity:1;fill-rule:nonzero;stroke:none"
           d="M 16300,0 H 0 V 9449.27 H 16300 V 0" /></g><g
         transform="scale(2.03811)"
         id="g18"><path
           id="path20"
           style="fill:#eafcfc;fill-opacity:1;fill-rule:nonzero;stroke:none"
           d="m 5794.14,9137.72 c 2209.84,125.01 4526.76,-526.13 4186.18,-1470.03 -340.56,-943.89 1820.78,335.28 2683.28,-5.04 614.1,-242.28 368.7,-979.84 665.7,-1277.04 681.2,-681.41 1377.8,176.67 2244.7,-338.19 608.4,-361.31 726,-2622.14 540.2,-4091.29 -89.9,-711.45 -646.7,-1273.683 -1357,-1372.451 v 0 L 3902.36,905.055 2579.8,802.656 c 0,0 -2385.315,885.964 -473.96,2125.394 1006.85,652.86 278.16,1176.88 170.29,1489.03 -123.84,358.37 -412.82,984.26 846.28,1443.59 1259.09,459.33 934,1458.74 903.03,1665.69 -30.96,206.95 -441.15,1486.36 1768.7,1611.36 v 0" /></g><g
         transform="scale(1.84294)"
         id="g22"><path
           id="path24"
           style="fill:#256653;fill-opacity:1;fill-rule:nonzero;stroke:none"
           d="m 16080,8167.08 c 0,0 -244.6,-532.65 -409.3,-757.63 -164.6,-225 -321.5,-440.16 -452.8,-1064.63 -131.4,-624.47 -108.9,-687.23 -144.8,-848.52 -36,-161.3 -270,-814.77 -271.3,-934.63 -1.4,-119.81 -472.9,-801.98 -593.7,-1121.25 -120.8,-319.27 -334.7,-775.34 -322.7,-1007.57 l 53.8,13.67 c 0,0 43.7,541.42 416.5,1088.58 372.7,547.17 319.5,650.48 742.7,931.56 423.3,281.07 696.8,1057.57 696.8,1057.57 0,0 430.6,843.39 410.5,1281.83 -20,438.44 94.3,833.85 -125.7,1361.02" /></g><g
         transform="scale(1.75329)"
         id="g26"><path
           id="path28"
           style="fill:#256653;fill-opacity:1;fill-rule:nonzero;stroke:none"
           d="m 16300,9445.78 c 0,0 -15,-367.78 -133.6,-586.26 -118.7,-218.47 -220.9,-351.17 -242.4,-587.55 -21.5,-236.37 -96,-845.78 -426.8,-1143.29 -330.8,-297.5 -373.1,-1188.95 -624.9,-1458.61 -251.8,-269.67 -284.7,-463.47 -238.2,-925.97 46.5,-462.56 204.5,-1103.53 -160.8,-1940.12 l -82.6,208.06 c 0,0 261.4,688.31 198.1,1091.32 -63.2,403.01 -283.4,1011.98 -202.8,1304.06 80.5,292.08 -219.1,349.1 -38.7,790.84 180.5,441.74 106.3,595.22 351.9,977.16 0,0 25.3,17.87 89.8,341.02 64.6,323.14 585.1,915.42 825.1,1117.55 239.9,202.11 585.6,526.03 685.9,811.79" /></g><g
         transform="scale(1.70247)"
         id="g30"><path
           id="path32"
           style="fill:#3c8f7c;fill-opacity:1;fill-rule:nonzero;stroke:none"
           d="m 15780.3,7852.46 c 0,0 -295.9,-506.53 -300.1,-832.55 -4.2,-326.01 31.1,-591.21 -118.5,-1037.66 -149.8,-446.42 147.3,-728.65 61.7,-975.18 -85.6,-246.46 -92.2,-538.33 -89.6,-759.66 2.6,-221.27 -338.9,-953.73 -390.9,-1324.54 -52,-370.88 14.5,-372.11 14.5,-372.11 0,0 56.6,489.64 135.1,651.52 78.6,161.89 317.6,720.07 373.4,936.06 55.8,215.92 207.1,354.54 337.5,720.3 130.5,365.7 316.1,673.78 301.9,1192.74 -14.2,518.97 194.7,1066.73 -325,1801.08" /></g><g
         transform="scale(1.8789)"
         id="g34"><path
           id="path36"
           style="fill:#3c8f7c;fill-opacity:1;fill-rule:nonzero;stroke:none"
           d="m 13731,2619.2 c 0,0 125,582.47 652.2,640.64 527.1,58.17 836.7,-46.04 1209.1,379.48 372.5,425.57 588.7,1100.91 707.7,1217.15 0,0 -187.1,96.23 -498.2,-194.58 -311.1,-290.81 -529.5,-511.42 -709.6,-680.72 -180.1,-169.36 -326.3,-58.92 -516.5,-170.58 -159.3,-93.57 -365.4,-363.94 -456.1,-505.56 -29.5,-45.99 -64.5,-88.19 -104.6,-125.24 -36.5,-33.74 -80.1,-75.04 -107.9,-105.43 -55.9,-60.83 -216.9,-457.24 -216.9,-457.24 l 40.8,2.08" /></g><g
         transform="scale(1.58277)"
         id="g38"><path
           id="path40"
           style="fill:#3c8f7c;fill-opacity:1;fill-rule:nonzero;stroke:none"
           d="m 16079.4,3231.24 c 0,0 220.6,845.61 72.9,1259.44 -147.7,413.83 -610.2,720.01 -591.6,979.93 18.6,259.99 315.5,962.55 73.4,1485.64 0,0 -92,-466.59 -182.7,-570.38 -90.7,-103.77 -713.5,-522.34 -603,-1075.11 110.3,-552.76 715.7,-682.03 864.8,-844.72 149.1,-162.75 350.4,-162.56 351.6,-270.73 1.3,-108.23 40.6,-501.65 -26.2,-889.9 l 40.8,-74.17" /></g><g
         transform="scale(1.65301)"
         id="g42"><path
           id="path44"
           style="fill:#327f6b;fill-opacity:1;fill-rule:nonzero;stroke:none"
           d="m 15627,3635.79 296.7,854.56 c 0,0 174.3,687.29 275.3,1260.48 101,573.14 53.4,2336.59 53.4,2336.59 0,0 -304.7,-521.69 -309,-857.46 -4.4,-335.78 32,-608.9 -122.1,-1068.71 -154.2,-459.78 151.8,-750.46 63.6,-1004.36 -88.2,-253.84 -95,-554.44 -92.3,-782.33 2.7,-227.95 -349,-982.33 -402.6,-1364.24 -29.3,-209.25 -22,-304.11 -9.5,-347.24 -47.5,334.05 246.5,972.71 246.5,972.71" /></g><g
         transform="scale(1.8789)"
         id="g46"><path
           id="path48"
           style="fill:#327f6b;fill-opacity:1;fill-rule:nonzero;stroke:none"
           d="m 15033.9,3646.56 c -232.8,-46.52 -441,-30.66 -717.4,-236.36 -276.3,-205.76 -438.9,-425.47 -438.9,-425.47 0,0 -124.3,-221.99 -175.6,-339.08 -7.4,-17.88 -11.8,-28.53 -11.8,-28.53 l 40.8,2.08 c 0,0 125,582.47 652.2,640.64 527.1,58.17 836.7,-46.04 1209.1,379.48 372.5,425.57 588.7,1100.91 707.7,1217.15 0,0 -396.1,-308.16 -640.8,-580.87 -244.8,-272.72 -392.5,-582.58 -625.3,-629.04" /></g><g
         transform="scale(1.57047)"
         id="g50"><path
           id="path52"
           style="fill:#327f6b;fill-opacity:1;fill-rule:nonzero;stroke:none"
           d="m 15572.4,6435.88 c -91.4,-104.58 -719,-526.42 -607.7,-1083.52 111.2,-557.1 721.3,-687.38 871.6,-851.34 150.2,-164.03 353.1,-163.84 354.4,-272.85 1.2,-109.07 40.8,-505.58 -26.5,-896.87 l 18,-32.66 c 32.9,152.76 78.6,385.24 93.5,561.81 24.3,286.79 -22.2,405.48 -114.4,637.77 -92.1,232.35 -664.9,705.46 -808.3,954.24 -143.6,248.78 276.6,664.58 369.9,865.35 93.3,200.76 33.7,692.92 33.7,692.92 0,0 -92.7,-470.24 -184.2,-574.85" /></g><g
         transform="scale(1.69853)"
         id="g54"><path
           id="path56"
           style="fill:#50bfa5;fill-opacity:1;fill-rule:nonzero;stroke:none"
           d="m 15406.4,3355.97 77.8,188.04 c 60.4,138.3 214.9,204.35 345,147.48 v 0 c 328.1,-143.18 470.8,-541.82 318.7,-890.36 l -111.3,-254.81 c -48.7,-111.62 -31.7,-234.43 34,-321.04 59.7,-78.6 69.4,-187.98 28,-282.77 l -58.6,-134.36 c -63.5,-145.41 -187,-253.1 -333.6,-297.55 -85.6,-25.96 -161.3,-90.25 -201.3,-181.98 l -83,-190.16 c -91.8,-210.303 -326.7,-310.742 -524.7,-224.316 l -112.9,49.338 c -198,86.368 -284.1,326.928 -192.3,537.168 v 0 c 148.5,251.46 136.7,439.15 84,566.38 -77.3,187.16 -76.4,402.52 7.3,594.16 l 11.7,26.9 c 88.3,202.29 258.9,353.31 461.9,418.01 89.7,28.56 183.1,98.26 249.3,249.87" /></g><g
         transform="scale(1.93819)"
         id="g58"><path
           id="path60"
           style="fill:#96d9c9;fill-opacity:1;fill-rule:nonzero;stroke:none"
           d="m 12273.6,613.769 c 139.5,180.942 904.7,1150.091 1403.5,1311.631 550.8,178.26 31.7,-529.82 31.7,-529.82 0,0 976.9,1068.21 1335.4,971.94 328.6,-88.28 0,-750.39 0,-750.39 0,0 370.1,366.63 819,366.63 436.8,0 -305.2,-1300.338 -345.2,-1369.991 h -3244.4" /></g><g
         transform="scale(1.84992)"
         id="g62"><path
           id="path64"
           style="fill:#3c8f7c;fill-opacity:1;fill-rule:nonzero;stroke:none"
           d="M 15943.8,2839.69 C 15525.6,2186.58 15220.4,1461.04 15045.9,690.3 l -28.7,7.676 c 173.8,754.624 477,1478.874 894.5,2131.284 97,151.62 201.8,331.47 383.4,390.66 3.5,1.14 4.9,-4.21 1.5,-5.46 -165.9,-62.54 -262,-232.98 -352.8,-374.77" /></g><g
         transform="scale(1.91501)"
         id="g66"><path
           id="path68"
           style="fill:#3c8f7c;fill-opacity:1;fill-rule:nonzero;stroke:none"
           d="m 14631.9,640.727 c 451.4,613.833 1000.2,1181.243 1652.8,1674.663 6.5,4.91 15.3,-6.47 8.7,-11.49 C 15674.5,1828.14 15127,1266.36 14666.2,631.485 l -34.3,9.242" /></g><g
         transform="scale(1.83088)"
         id="g70"><path
           id="path72"
           style="fill:#3c8f7c;fill-opacity:1;fill-rule:nonzero;stroke:none"
           d="m 16148.3,3278.48 c 10.8,-16 52.5,-57.73 64.7,-112.51 16.4,-52 3.4,-117.1 2.1,-114.81 -3.2,-1.31 48.1,42.06 64.2,111.09 20.7,66.2 6.2,158.02 -19.6,188.38 -44.6,68.77 -122.5,75.76 -137.6,42.39 -16.1,-33.1 4.3,-78.16 26.2,-114.54" /></g><g
         transform="scale(1.84177)"
         id="g74"><path
           id="path76"
           style="fill:#3c8f7c;fill-opacity:1;fill-rule:nonzero;stroke:none"
           d="m 16153.2,2673.51 c -15.7,11.13 -56.3,53.32 -110.6,66.57 -51.3,17.37 -116.3,5.75 -114,4.29 -1.4,-3.1 42.7,47.07 111.6,61.68 66.2,19.32 157.2,3.09 186.9,-23.19 67.5,-45.66 72.9,-123.19 39.5,-137.58 -33.3,-15.31 -77.6,5.81 -113.4,28.23" /></g><g
         transform="scale(1.82464)"
         id="g78"><path
           id="path80"
           style="fill:#3c8f7c;fill-opacity:1;fill-rule:nonzero;stroke:none"
           d="m 16151.8,2439.61 c -15.8,11.18 -56.8,53.82 -111.6,67.13 -51.8,17.54 -117.4,5.81 -115.1,4.39 -1.4,-3.13 43.2,47.46 112.7,62.2 66.8,19.51 158.6,3.13 188.7,-23.4 68.1,-46.09 73.5,-124.35 39.7,-138.88 -33.5,-15.45 -78.3,5.87 -114.4,28.56" /></g><g
         transform="scale(1.88575)"
         id="g82"><path
           id="path84"
           style="fill:#3c8f7c;fill-opacity:1;fill-rule:nonzero;stroke:none"
           d="m 16156.7,1779.13 c -15.4,10.87 -55.1,52.07 -108.1,65.01 -50.1,16.97 -113.5,5.57 -111.4,4.19 -1.2,-3.02 41.8,45.98 109.1,60.19 64.7,18.88 153.5,3.02 182.5,-22.59 66,-44.6 71.2,-120.38 38.5,-134.43 -32.4,-14.9 -75.7,5.73 -110.6,27.63" /></g><g
         transform="scale(1.91698)"
         id="g86"><path
           id="path88"
           style="fill:#3c8f7c;fill-opacity:1;fill-rule:nonzero;stroke:none"
           d="m 16158.9,1984.06 c -15,10.69 -54.1,51.22 -106.2,63.95 -49.3,16.64 -111.7,5.48 -109.6,4.12 -1.3,-2.97 41.1,45.23 107.3,59.21 63.6,18.57 151,2.97 179.6,-22.22 64.8,-43.87 70,-118.42 37.9,-132.24 -32,-14.71 -74.6,5.63 -109,27.18" /></g><g
         transform="scale(1.80758)"
         id="g90"><path
           id="path92"
           style="fill:#3c8f7c;fill-opacity:1;fill-rule:nonzero;stroke:none"
           d="m 16140.2,3024.82 c 13.5,-14.22 61.8,-49.29 82.7,-102.18 24.8,-49.4 22.2,-116.56 20.5,-114.52 -3,-1.77 41.4,49.79 46.4,121.38 10.2,69.54 -19,159.06 -49.7,185.33 -55.6,61.69 -134.6,56.21 -144.4,20.42 -10.7,-35.69 16.8,-77.51 44.5,-110.43" /></g><g
         transform="scale(1.78794)"
         id="g94"><path
           id="path96"
           style="fill:#3c8f7c;fill-opacity:1;fill-rule:nonzero;stroke:none"
           d="m 16087.7,2758.25 c 19.3,-10.23 86.9,-28.86 120.9,-79.36 38.4,-44.97 43.3,-121.93 40.7,-120.37 -3.6,-3.29 48.2,74.22 45.9,157.17 4.8,82.89 -44.4,171.2 -87.8,187.53 -80.3,45.42 -183,4.92 -191.5,-39.71 -9.6,-44.97 31.6,-80.15 71.8,-105.26" /></g><g
         transform="scale(1.76314)"
         id="g98"><path
           id="path100"
           style="fill:#3c8f7c;fill-opacity:1;fill-rule:nonzero;stroke:none"
           d="m 16068.9,2336.58 c 21.1,-6.92 91.8,-14.01 134.4,-58.76 46.1,-38.4 64.1,-114.46 61.3,-113.32 -3.1,-3.92 35.4,82.41 19,164.93 -9.3,83.66 -73.6,163.52 -119.7,172.48 -88,31.7 -183.8,-26.32 -184.7,-72.37 -2,-46.57 45.2,-74.76 89.7,-92.96" /></g><g
         transform="scale(1.83581)"
         id="g102"><path
           id="path104"
           style="fill:#3c8f7c;fill-opacity:1;fill-rule:nonzero;stroke:none"
           d="m 16129.6,1936.04 c 14.7,-9.21 67.2,-27.67 91.3,-69.61 27.9,-37.75 27.6,-98.98 25.6,-97.56 -3,-2.46 42.3,56.1 45.1,121.96 8.4,65.36 -25.7,138.03 -59.1,153.39 -61.2,40.47 -144.8,14.05 -154,-20.81 -10.2,-35.08 20.6,-65.25 51.1,-87.37" /></g><g
         transform="scale(1.86723)"
         id="g106"><path
           id="path108"
           style="fill:#3c8f7c;fill-opacity:1;fill-rule:nonzero;stroke:none"
           d="m 16214.7,3112.84 c -8.6,7.18 -30.5,33.53 -61.6,43.6 -29.2,12.37 -67.6,8.35 -66.4,7.44 -0.9,-1.77 27,25.6 67.8,31.17 39.5,8.41 91.9,-4.98 108.1,-21.58 37.4,-29.57 37.2,-75.09 17.1,-82 -20.1,-7.5 -45,6.75 -65,21.37" /></g><g
         transform="scale(1.85717)"
         id="g110"><path
           id="path112"
           style="fill:#3c8f7c;fill-opacity:1;fill-rule:nonzero;stroke:none"
           d="m 16219.1,3315.47 c 0.4,-11.3 7.9,-44.91 -3.1,-75.87 -8.1,-30.8 -34.8,-58.96 -34.8,-57.39 -2,0.32 36.9,5.76 66.4,34.89 30.9,26.27 52.4,76.19 49.1,99.29 -0.6,47.92 -36.9,75.7 -54.8,63.91 -18.3,-11.36 -22.2,-40.01 -22.8,-64.83" /></g><g
         transform="scale(1.93265)"
         id="g114"><path
           id="path116"
           style="fill:#3c8f7c;fill-opacity:1;fill-rule:nonzero;stroke:none"
           d="m 16217.6,2204.28 c -8.4,6.93 -29.5,32.44 -59.5,42.17 -28.3,11.9 -65.4,8.07 -64.2,7.14 -0.9,-1.66 26.1,24.78 65.6,30.11 38.1,8.13 88.7,-4.81 104.3,-20.85 36.2,-28.56 36,-72.49 16.5,-79.22 -19.3,-7.24 -43.5,6.52 -62.7,20.65" /></g><g
         transform="scale(1.9208)"
         id="g118"><path
           id="path120"
           style="fill:#3c8f7c;fill-opacity:1;fill-rule:nonzero;stroke:none"
           d="m 16220.3,2399.06 c 1.2,-10.83 11.2,-42.64 3,-73.36 -5.4,-30.35 -28.9,-59.56 -29,-58.05 -1.9,0.16 35.2,8.49 61.2,38.89 27.7,27.75 44.5,77.52 39.5,99.54 -4.3,46.13 -41.5,70.03 -57.8,57.27 -16.7,-12.39 -18.4,-40.29 -16.9,-64.29" /></g><g
         transform="scale(1.90367)"
         id="g122"><path
           id="path124"
           style="fill:#3c8f7c;fill-opacity:1;fill-rule:nonzero;stroke:none"
           d="m 16297.8,1239.4 c -414.9,-45.44 -801.4,-228.61 -1173.4,-407.269 -250.9,-120.452 -238.2,-154.755 -289.4,-172.666 -8.3,-2.943 -16.5,6.092 -12.5,14.076 19.7,38.926 71.2,65.244 107.1,87.674 41.7,26.054 85.3,49.063 129.6,70.6 94.7,45.964 191.8,87.305 288.4,129.277 196.3,85.308 395.9,165.578 603.3,219.888 113.8,29.79 229.5,51.27 346.6,61.83 2.2,0.16 2.5,-3.15 0.3,-3.41 v 0" /></g><g
         transform="scale(1.87451)"
         id="g126"><path
           id="path128"
           style="fill:#3c8f7c;fill-opacity:1;fill-rule:nonzero;stroke:none"
           d="m 16171.5,1389.32 c 2.8,-17.28 20.8,-67.48 9.7,-117.04 -6.6,-48.92 -42.3,-97.2 -42.6,-94.8 -3,0.16 55.7,15.9 95.4,66.21 42.5,46.2 66,126.96 56.6,161.8 -10,73.46 -71.1,109.2 -96.3,87.76 -26,-20.97 -26.7,-65.68 -22.8,-103.93" /></g><g
         transform="scale(1.83182)"
         id="g130"><path
           id="path132"
           style="fill:#3c8f7c;fill-opacity:1;fill-rule:nonzero;stroke:none"
           d="m 16168.5,1285.72 c 2.8,-17.69 21.3,-69.06 9.9,-119.83 -6.7,-50 -43.3,-99.46 -43.5,-97.01 -3.1,0.17 56.9,16.27 97.6,67.81 43.5,47.22 67.5,129.87 57.8,165.52 -10.2,75.22 -72.7,111.74 -98.5,89.8 -26.5,-21.4 -27.2,-67.2 -23.3,-106.29" /></g><g
         transform="scale(1.78844)"
         id="g134"><path
           id="path136"
           style="fill:#3c8f7c;fill-opacity:1;fill-rule:nonzero;stroke:none"
           d="m 16165.4,1140.66 c 2.8,-18.11 21.7,-70.73 10.1,-122.73 -7,-51.218 -44.4,-101.821 -44.6,-99.305 -3.2,0.112 58.3,16.661 99.9,69.389 44.5,48.426 69.2,133.026 59.3,169.586 -10.5,77 -74.5,114.46 -100.9,91.93 -27.2,-21.92 -27.9,-68.83 -23.8,-108.87" /></g><g
         transform="scale(1.88747)"
         id="g138"><path
           id="path140"
           style="fill:#3c8f7c;fill-opacity:1;fill-rule:nonzero;stroke:none"
           d="m 16170.6,1035.35 c -7.6,14.15 -22.3,60.88 -57.9,91.02 -31.9,32.11 -84.8,47.69 -83.6,45.78 -2.2,-1.8 49.5,19.23 106.4,4.4 56.7,-10.28 118.7,-56.32 131.1,-87.05 33.4,-59.34 8.5,-119.314 -21.9,-117.619 -30.5,0.954 -55.8,33.329 -74.1,63.469" /></g><g
         transform="scale(1.84307)"
         id="g142"><path
           id="path144"
           style="fill:#3c8f7c;fill-opacity:1;fill-rule:nonzero;stroke:none"
           d="m 16167.4,921.237 c -7.8,14.539 -22.7,62.396 -59.3,93.213 -32.6,32.94 -86.8,48.89 -85.6,46.93 -2.3,-1.9 50.7,19.65 109,4.51 58.1,-10.53 121.6,-57.68 134.3,-89.149 34.2,-60.768 8.7,-122.187 -22.4,-120.452 -31.3,0.977 -57.2,34.13 -76,64.948" /></g><g
         transform="scale(1.9158)"
         id="g146"><path
           id="path148"
           style="fill:#3c8f7c;fill-opacity:1;fill-rule:nonzero;stroke:none"
           d="m 16219.2,1157.69 c -6.5,7.78 -21.7,34.76 -47.6,48.81 -24,15.71 -58.7,18.42 -57.7,17.43 -1.1,-1.41 28.1,18.32 65.3,16.55 36.4,1.04 80.7,-19.37 92.4,-36.8 28.4,-32.31 20.8,-72.71 1.8,-75.59 -19.1,-3.39 -38.9,13.37 -54.2,29.6" /></g><g
         transform="scale(1.91011)"
         id="g150"><path
           id="path152"
           style="fill:#3c8f7c;fill-opacity:1;fill-rule:nonzero;stroke:none"
           d="m 16223.8,1339.29 c -1.5,-10.05 -0.3,-41.09 -15.2,-66.69 -12.2,-25.97 -40.4,-46.55 -40.1,-45.18 -1.7,0.62 33.7,-0.89 64.5,20.1 31.7,18.22 58.8,58.95 59.7,79.94 7.3,42.56 -20.4,73.04 -38.1,65.55 -18.1,-7.07 -26.3,-31.83 -30.8,-53.72" /></g><path
         id="path154"
         style="fill:#3c8f7c;fill-opacity:1;fill-rule:nonzero;stroke:none"
         d="m 6764.79,8188.3 c -660.84,1062 -784.16,2344.3 -771.23,3233 14.03,964.9 187.16,1687.3 188.9,1694.5 l -47.8,17.3 c -1.76,-7.3 -176.27,-734.9 -190.54,-1706.2 -13.2,-897.5 111.51,-2193 780.54,-3268.1 l 40.13,29.5" /><path
         id="path156"
         style="fill:#3c8f7c;fill-opacity:1;fill-rule:nonzero;stroke:none"
         d="m 6345.18,13292.2 c -16.24,-218.3 -110.22,-401.4 -245.53,-513.8 -115.63,152 -180.51,360.2 -164.27,578.6 16.24,218.3 110.23,401.4 245.53,513.8 115.63,-152 180.51,-360.2 164.27,-578.6" /><path
         id="path158"
         style="fill:#3c8f7c;fill-opacity:1;fill-rule:nonzero;stroke:none"
         d="m 5898.54,12788.3 c 112.1,-189 146.86,-404.1 110.95,-590.8 -171.67,42.1 -337.82,165.6 -449.93,354.6 -112.09,188.9 -146.85,404 -110.95,590.7 171.67,-42.1 337.84,-165.6 449.93,-354.5" /><path
         id="path160"
         style="fill:#3c8f7c;fill-opacity:1;fill-rule:nonzero;stroke:none"
         d="m 5645.51,12195.2 c 174.07,-116.6 292.07,-296.4 337.45,-486 -165.44,-48.4 -359.44,-19.3 -533.53,97.2 -174.08,116.6 -292.08,296.4 -337.46,486 165.45,48.4 359.46,19.3 533.54,-97.2" /><path
         id="path162"
         style="fill:#3c8f7c;fill-opacity:1;fill-rule:nonzero;stroke:none"
         d="m 5723.54,11369.3 c 137.82,-92.6 223.24,-250.9 246.53,-425.9 -143.61,-62.8 -305.19,-55.2 -443.01,37.4 -137.82,92.6 -223.25,250.8 -246.55,425.8 143.62,62.9 305.21,55.2 443.03,-37.3" /><path
         id="path164"
         style="fill:#3c8f7c;fill-opacity:1;fill-rule:nonzero;stroke:none"
         d="m 6293.06,12347.8 c 154.93,85.2 328.35,90 476.78,28.5 -39.21,-164.7 -143.48,-312.7 -298.41,-397.9 -154.94,-85.2 -328.35,-90 -476.78,-28.4 39.2,164.7 143.48,312.6 298.41,397.8" /><path
         id="path166"
         style="fill:#3c8f7c;fill-opacity:1;fill-rule:nonzero;stroke:none"
         d="m 6275.9,11777.4 c 154.93,85.2 328.35,90 476.78,28.5 -39.2,-164.7 -143.48,-312.7 -298.41,-397.9 -154.93,-85.2 -328.35,-89.9 -476.78,-28.4 39.21,164.7 143.48,312.6 298.41,397.8" /><path
         id="path168"
         style="fill:#96d9c9;fill-opacity:1;fill-rule:nonzero;stroke:none"
         d="M 6320.15,2993.3 C 4856.11,3524.6 3832.08,4791.7 3230.82,5761.1 2578.09,6813.5 2268.66,7752.3 2265.61,7761.7 l -64.7,-25.7 c 3.07,-9.4 314.64,-955.2 971.54,-2014.7 607.01,-979.1 1641.72,-2259.1 3123.89,-2797 l 23.81,69" /><path
         id="path170"
         style="fill:#96d9c9;fill-opacity:1;fill-rule:nonzero;stroke:none"
         d="m 2322.79,8102.7 c 133.3,-250.3 156.5,-534.7 85.16,-781.2 -232.77,56.5 -448.49,220.6 -581.79,470.9 -133.3,250.3 -156.5,534.7 -85.16,781.2 232.76,-56.5 448.48,-220.7 581.79,-470.9" /><path
         id="path172"
         style="fill:#96d9c9;fill-opacity:1;fill-rule:nonzero;stroke:none"
         d="m 2179.4,7145.6 c 254.44,-99.6 441.73,-299.1 531.46,-533.6 -218.42,-113.8 -487.16,-134.8 -741.61,-35.2 -254.44,99.6 -441.73,299.1 -531.46,533.6 218.43,113.8 487.18,134.8 741.61,35.2" /><path
         id="path174"
         style="fill:#96d9c9;fill-opacity:1;fill-rule:nonzero;stroke:none"
         d="m 2311.17,6272 c 272.64,35.9 527.25,-48.4 708.59,-210.6 -148.86,-205.6 -382.9,-354.1 -655.55,-390 -272.63,-35.8 -527.24,48.5 -708.58,210.6 148.85,205.6 382.9,354.2 655.54,390" /><path
         id="path176"
         style="fill:#96d9c9;fill-opacity:1;fill-rule:nonzero;stroke:none"
         d="m 2827.31,5435.1 c 272.65,35.9 527.25,-48.4 708.59,-210.6 -148.85,-205.6 -382.9,-354.1 -655.53,-390 -272.65,-35.8 -527.26,48.4 -708.6,210.6 148.86,205.6 382.9,354.1 655.54,390" /><path
         id="path178"
         style="fill:#96d9c9;fill-opacity:1;fill-rule:nonzero;stroke:none"
         d="m 2786.05,6738.6 c 14.82,264.3 125.42,502.8 288.12,665.6 144.74,-157.3 228.76,-392.4 213.94,-656.7 -14.83,-264.2 -125.42,-502.8 -288.12,-665.6 -144.74,157.3 -228.76,392.4 -213.94,656.7" /><path
         id="path180"
         style="fill:#96d9c9;fill-opacity:1;fill-rule:nonzero;stroke:none"
         d="m 3325.03,5872.4 c 10.93,264.3 118.04,504.9 278.38,670.6 147.11,-154.5 234.63,-387.8 223.7,-652.2 -10.93,-264.4 -118.04,-504.9 -278.38,-670.7 -147.11,154.5 -234.63,387.9 -223.7,652.3" /><path
         id="path182"
         style="fill:#96d9c9;fill-opacity:1;fill-rule:nonzero;stroke:none"
         d="m 3707.55,4569.6 c 103.96,54.8 218.32,56.5 314.74,14.8 -29.49,-107.9 -101.46,-204.3 -205.43,-259 -103.97,-54.8 -218.32,-56.5 -314.74,-14.8 29.49,107.9 101.47,204.3 205.43,259" /><path
         id="path184"
         style="fill:#3c8f7c;fill-opacity:1;fill-rule:nonzero;stroke:none"
         d="m 9484.08,4281.5 c 0,0 1138.12,2393.8 757.72,2927.9 -525.87,738.1 -1179.7,-1526.9 -1211.59,-1327.8 -301.16,1880.1 -238.14,4251.3 -1646.62,4610.7 -800.66,204.3 52.94,-1771 -46.5,-2279.9 -99.42,-508.9 -1431.33,1308 -2251.64,2269.4 -820.3,961.3 -1322.59,430.9 -847.08,-735.4 459.8,-1127.7 2125.49,-2449.1 1752.62,-2562.2 -372.86,-113 -2463.64,1457.9 -2778.75,878.9 -386.35,-709.8 2834.43,-1962.9 2511.28,-2104.2 -323.15,-141.4 -1857.45,523.2 -1857.45,-42.3 0,-565.5 2120.13,-706.8 2064.99,-951.3 -89.28,-395.9 -1421.07,617.7 -1525.09,68.4 -106.39,-561.8 1807.92,-604.5 1741.05,-1043.9 -38.43,-252.5 -520.58,11.8 -607.79,-335.4 -198.86,-791.7 2817.68,-1901 2817.68,-1901 l 1127.17,2528.1" /><path
         id="path186"
         style="fill:#96d9c9;fill-opacity:1;fill-rule:nonzero;stroke:none"
         d="m 11888.4,3846.8 c 458,-213.8 334.5,-744.7 334.5,-744.7 0,0 1241.7,966.2 1705.9,402.2 464.1,-563.9 220.2,-1669.4 -324.2,-1849.2 -544.5,-179.7 -5279.97,-53.7 -5279.97,-53.7 0,0 3151.87,2437.7 3563.77,2245.4" /><path
         id="path188"
         style="fill:#50bfa5;fill-opacity:1;fill-rule:nonzero;stroke:none"
         d="m 9484.11,5818.5 56.58,33.1 c -874.73,1552.2 -1049.51,3334.1 -1042.1,4555.7 8.05,1325.6 226.41,2295.9 228.62,2305.6 l -65.52,24.1 c -2.23,-9.7 -222.18,-986.5 -230.46,-2320 -7.67,-1231.9 168.8,-3029.7 1052.88,-4598.5" /><path
         id="path190"
         style="fill:#50bfa5;fill-opacity:1;fill-rule:nonzero;stroke:none"
         d="m 8936.28,12930.3 c -18.87,-298.1 -139.6,-537.1 -315.03,-673.3 -152.57,224.9 -239.48,520.1 -220.61,818.2 18.87,298.1 139.6,537.2 315.03,673.3 152.58,-224.9 239.49,-520.1 220.61,-818.2" /><path
         id="path192"
         style="fill:#50bfa5;fill-opacity:1;fill-rule:nonzero;stroke:none"
         d="m 8358.61,12298 c 148.35,-275.2 196.01,-575.8 151.13,-827.7 -224.55,81.3 -442.77,273.9 -591.12,549.1 -148.35,275.2 -196.01,575.8 -151.12,827.7 224.54,-81.3 442.76,-273.9 591.11,-549.1" /><path
         id="path194"
         style="fill:#50bfa5;fill-opacity:1;fill-rule:nonzero;stroke:none"
         d="m 8034.61,11516.8 c 228.49,-184.1 384.44,-447.5 445.7,-714.5 -215.46,-44 -469.02,22.5 -697.51,206.5 -228.49,184.1 -384.44,447.5 -445.71,714.5 215.47,44 469.03,-22.5 697.52,-206.5" /><path
         id="path196"
         style="fill:#50bfa5;fill-opacity:1;fill-rule:nonzero;stroke:none"
         d="m 8249.47,10097.8 c 100.38,-69.9 172.92,-175.8 206.19,-286.4 -88.28,-26 -195.65,-6.6 -296.03,63.3 -100.37,69.9 -172.91,175.8 -206.19,286.5 88.29,25.9 195.66,6.5 296.03,-63.4" /><path
         id="path198"
         style="fill:#50bfa5;fill-opacity:1;fill-rule:nonzero;stroke:none"
         d="m 8298.15,9574.3 c 100.39,-69.9 172.92,-175.8 206.2,-286.4 -88.29,-26 -195.65,-6.6 -296.03,63.4 -100.38,69.9 -172.91,175.8 -206.19,286.4 88.29,25.9 195.65,6.5 296.02,-63.4" /><path
         id="path200"
         style="fill:#50bfa5;fill-opacity:1;fill-rule:nonzero;stroke:none"
         d="m 8878.31,11638.4 c 201.34,96 427.67,78.9 622.09,-26 -49.43,-221.2 -183.97,-410.5 -385.31,-506.5 -201.34,-96.1 -427.67,-78.9 -622.09,25.9 49.43,221.2 183.96,410.5 385.31,506.6" /><path
         id="path202"
         style="fill:#50bfa5;fill-opacity:1;fill-rule:nonzero;stroke:none"
         d="m 8861.99,10856.1 c 201.34,96.1 427.67,79 622.09,-25.9 -49.43,-221.2 -183.97,-410.5 -385.31,-506.6 -201.34,-96 -427.67,-78.9 -622.09,26 49.43,221.2 183.96,410.5 385.31,506.5" /><path
         id="path204"
         style="fill:#50bfa5;fill-opacity:1;fill-rule:nonzero;stroke:none"
         d="m 8744.92,9743.2 c 131.05,62.5 278.36,51.3 404.9,-16.9 -32.16,-144 -119.73,-267.2 -250.78,-329.7 -131.05,-62.5 -278.37,-51.4 -404.9,16.9 32.16,143.9 119.73,267.1 250.78,329.7" /><path
         id="path206"
         style="fill:#50bfa5;fill-opacity:1;fill-rule:nonzero;stroke:none"
         d="m 8324.63,1606.1 c 0,0 2069.47,424.7 2520.87,838.3 451.4,413.6 251.6,574.8 251.6,574.8 0,0 795.3,626.6 782.9,1035.6 -12.4,409.1 -530.6,201.6 -530.6,201.6 0,0 878.2,1126.8 669.9,1341.1 -388,399.2 -1403.3,-772.1 -1403.3,-772.1 0,0 301.3,557.2 -16.5,645.7 -479.4,133.4 -832,-1240.8 -832,-1240.8 0,0 89.43,542.7 -240.99,470.7 C 8933.68,4571.7 8324.63,1606.1 8324.63,1606.1" /><path
         id="path208"
         style="fill:#50bfa5;fill-opacity:1;fill-rule:nonzero;stroke:none"
         d="m 9295.95,1735.3 c 0,0 -1356.26,1703.9 -1964.27,1989 -647.84,303.8 -86.07,-749 -86.07,-749 0,0 -1385.25,1356.2 -1710.6,1017.6 -325.36,-338.7 22.04,-655.6 22.04,-655.6 0,0 -1159.94,214.8 -1329.07,-218.2 -259.88,-665.4 1647.93,-996.4 1647.93,-996.4 0,0 -800.88,-74.8 -618,-486.8 275.8,-621.3 4038.04,99.4 4038.04,99.4" /><path
         id="path210"
         style="fill:#96d9c9;fill-opacity:1;fill-rule:nonzero;stroke:none"
         d="m 4227.98,3119.1 c 169.13,433 1329.07,218.2 1329.07,218.2 0,0 -347.4,316.9 -22.05,655.6 325.36,338.6 1409.69,-461.1 1409.69,-461.1 0,0 -168,735 646.53,156.9 C 8173,3275.7 9295.95,1735.3 9295.95,1735.3 L 4227.98,3119.1" /><path
         id="path212"
         style="fill:#b75742;fill-opacity:1;fill-rule:nonzero;stroke:none"
         d="M 9640.7,11921.1 8387.23,1580 l 178.9,-193.6 1073.63,4288.4 0.94,6246.3" /><path
         id="path214"
         style="fill:#355389;fill-opacity:1;fill-rule:nonzero;stroke:none"
         d="M 9793.16,12960.2 8566.13,1386.4 h 2708.57 l -672.8,11812.2 -808.74,-238.4" /><g
         transform="scale(1.57848)"
         id="g216"><path
           id="path218"
           style="fill:#edd7be;fill-opacity:1;fill-rule:nonzero;stroke:none"
           d="m 5957.76,961.052 h 9579.44 c 163.9,0 305.7,140.388 316.9,313.528 l 436.5,6759.96 c 9.4,146.38 -95.2,265.03 -233.7,265.03 H 6431.57 c -138.48,0 -258.4,-118.65 -267.85,-265.03 L 5724.13,1226.12 c -9.44,-146.41 95.16,-265.068 233.63,-265.068" /></g><path
         id="path220"
         style="fill:#184655;fill-opacity:1;fill-rule:nonzero;stroke:none"
         d="m 10604,13161.1 -2.1,37.5 -878.71,-78.2 -1157.06,-11734 h 129.21 l 1227.03,11573.8 681.63,200.9" /><path
         id="path222"
         style="fill:#fef8f8;fill-opacity:1;fill-rule:nonzero;stroke:none"
         d="M 9790.95,11720.6 9135.96,1825.2 c 19.87,-241.9 232.29,-308.2 355.09,-308.2 h 1963.25 l -1171.6,11095.8 -491.75,-892.2" /><path
         id="path224"
         style="fill:#9bc1f9;fill-opacity:1;fill-rule:nonzero;stroke:none"
         d="m 11357.6,9249.9 h -1020.4 c -146.4,0 -254,123.5 -240.4,275.9 l 94.7,1062.2 c 13.6,152.4 143.2,275.9 289.6,275.9 h 1020.4 c 146.4,0 254,-123.5 240.4,-275.9 l -94.7,-1062.2 c -13.5,-152.4 -143.2,-275.9 -289.6,-275.9" /><path
         id="path226"
         style="fill:#9bc1f9;fill-opacity:1;fill-rule:nonzero;stroke:none"
         d="m 13557.1,9249.9 h -1020.4 c -146.4,0 -254,123.5 -240.4,275.9 l 94.7,1062.2 c 13.6,152.4 143.2,275.9 289.6,275.9 H 13701 c 146.4,0 254,-123.5 240.4,-275.9 l -94.7,-1062.2 c -13.5,-152.4 -143.2,-275.9 -289.6,-275.9" /><path
         id="path228"
         style="fill:#9bc1f9;fill-opacity:1;fill-rule:nonzero;stroke:none"
         d="m 15756.6,9249.9 h -1020.4 c -146.4,0 -254,123.5 -240.4,275.9 l 94.7,1062.2 c 13.5,152.4 143.2,275.9 289.6,275.9 h 1020.4 c 146.4,0 254,-123.5 240.4,-275.9 l -94.7,-1062.2 c -13.6,-152.4 -143.2,-275.9 -289.6,-275.9" /><g
         transform="scale(1.12601)"
         id="g230"><path
           id="path232"
           style="fill:#9bc1f9;fill-opacity:1;fill-rule:nonzero;stroke:none"
           d="m 15946.6,8214.74 h -906.2 c -130,0 -225.6,109.68 -213.5,245.03 l 84.1,943.33 c 12,135.32 127.2,245.02 257.2,245.02 h 906.2 c 130,0 225.6,-109.7 213.5,-245.02 l -84.1,-943.33 c -12.1,-135.35 -127.2,-245.03 -257.2,-245.03" /></g><g
         transform="scale(1.26095)"
         id="g234"><path
           id="path236"
           style="fill:#9bc1f9;fill-opacity:1;fill-rule:nonzero;stroke:none"
           d="m 15984.4,7335.66 h -809.2 c -116.1,0 -201.4,97.93 -190.6,218.8 l 75,842.39 c 10.8,120.83 113.6,218.79 229.7,218.79 h 809.3 c 116,0 201.4,-97.96 190.6,-218.79 l -75.1,-842.39 c -10.8,-120.87 -113.6,-218.8 -229.7,-218.8" /></g><g
         transform="scale(1.39589)"
         id="g238"><path
           id="path240"
           style="fill:#f47458;fill-opacity:1;fill-rule:nonzero;stroke:none"
           d="m 16015,6626.53 h -731.1 c -104.8,0 -181.9,88.47 -172.2,197.65 l 67.8,760.96 c 9.7,109.15 102.7,197.64 207.5,197.64 h 731 c 104.8,0 182,-88.49 172.3,-197.64 l -67.9,-760.96 c -9.7,-109.18 -102.6,-197.65 -207.4,-197.65" /></g><g
         transform="scale(1.53083)"
         id="g242"><path
           id="path244"
           style="fill:#f47458;fill-opacity:1;fill-rule:nonzero;stroke:none"
           d="m 16040.1,6042.42 h -666.6 c -95.6,0 -165.9,80.67 -157.1,180.23 l 61.9,693.87 c 8.8,99.54 93.6,180.23 189.2,180.23 h 666.6 c 95.5,0 165.9,-80.69 157,-180.23 l -61.8,-693.87 c -8.9,-99.56 -93.7,-180.23 -189.2,-180.23" /></g><path
         id="path246"
         style="fill:#9bc1f9;fill-opacity:1;fill-rule:nonzero;stroke:none"
         d="m 11141,6819.9 h -1020.4 c -146.39,0 -254.04,123.5 -240.45,275.9 l 94.69,1062.2 c 13.58,152.4 143.26,275.9 289.66,275.9 h 1020.4 c 146.3,0 254,-123.5 240.4,-275.9 l -94.7,-1062.2 c -13.6,-152.4 -143.2,-275.9 -289.6,-275.9" /><path
         id="path248"
         style="fill:#9bc1f9;fill-opacity:1;fill-rule:nonzero;stroke:none"
         d="m 13340.5,6819.9 h -1020.4 c -146.4,0 -254,123.5 -240.5,275.9 l 94.7,1062.2 c 13.6,152.4 143.3,275.9 289.7,275.9 h 1020.4 c 146.3,0 254,-123.5 240.4,-275.9 l -94.7,-1062.2 c -13.6,-152.4 -143.3,-275.9 -289.6,-275.9" /><path
         id="path250"
         style="fill:#9bc1f9;fill-opacity:1;fill-rule:nonzero;stroke:none"
         d="m 15540,6819.9 h -1020.4 c -146.4,0 -254,123.5 -240.5,275.9 l 94.7,1062.2 c 13.6,152.4 143.3,275.9 289.7,275.9 h 1020.3 c 146.4,0 254.1,-123.5 240.5,-275.9 l -94.7,-1062.2 c -13.6,-152.4 -143.3,-275.9 -289.6,-275.9" /><g
         transform="scale(1.11272)"
         id="g252"><path
           id="path254"
           style="fill:#9bc1f9;fill-opacity:1;fill-rule:nonzero;stroke:none"
           d="m 15942.4,6129.01 h -917 c -131.6,0 -228.4,110.99 -216.2,247.95 l 85.1,954.6 c 12.3,136.96 128.8,247.95 260.3,247.95 h 917 c 131.6,0 228.4,-110.99 216.2,-247.95 l -85.1,-954.6 c -12.3,-136.96 -128.8,-247.95 -260.3,-247.95" /></g><g
         transform="scale(1.24766)"
         id="g256"><path
           id="path258"
           style="fill:#9bc1f9;fill-opacity:1;fill-rule:nonzero;stroke:none"
           d="m 15981.1,5466.14 h -817.9 c -117.3,0 -203.6,98.99 -192.7,221.14 l 75.9,851.35 c 10.9,122.15 114.8,221.13 232.1,221.13 h 817.8 c 117.4,0 203.7,-98.98 192.8,-221.13 l -75.9,-851.35 c -10.9,-122.15 -114.9,-221.14 -232.1,-221.14" /></g><g
         transform="scale(1.3826)"
         id="g260"><path
           id="path262"
           style="fill:#f47458;fill-opacity:1;fill-rule:nonzero;stroke:none"
           d="m 16012.1,4932.66 h -737.9 c -105.9,0 -183.8,89.32 -174,199.55 l 68.5,768.26 c 9.9,110.23 103.7,199.56 209.5,199.56 h 738 c 105.9,0 183.8,-89.33 174,-199.56 l -68.5,-768.26 c -9.9,-110.23 -103.7,-199.55 -209.6,-199.55" /></g><g
         transform="scale(1.51753)"
         id="g264"><path
           id="path266"
           style="fill:#f47458;fill-opacity:1;fill-rule:nonzero;stroke:none"
           d="m 16037.8,4494.07 h -672.4 c -96.4,0 -167.4,81.38 -158.4,181.81 l 62.4,699.95 c 8.9,100.43 94.4,181.81 190.8,181.81 h 672.4 c 96.5,0 167.4,-81.38 158.5,-181.81 l -62.4,-699.95 c -9,-100.43 -94.4,-181.81 -190.9,-181.81" /></g><path
         id="path268"
         style="fill:#9bc1f9;fill-opacity:1;fill-rule:nonzero;stroke:none"
         d="M 10924.3,4389.9 H 9903.96 c -146.38,0 -254.03,123.5 -240.45,275.9 l 94.69,1062.1 c 13.59,152.4 143.26,275.9 289.6,275.9 h 1020.4 c 146.4,0 254.1,-123.5 240.5,-275.9 L 11214,4665.8 c -13.6,-152.4 -143.3,-275.9 -289.7,-275.9" /><path
         id="path270"
         style="fill:#9bc1f9;fill-opacity:1;fill-rule:nonzero;stroke:none"
         d="m 13123.8,4389.9 h -1020.4 c -146.3,0 -254,123.5 -240.4,275.9 l 94.7,1062.1 c 13.6,152.4 143.3,275.9 289.6,275.9 h 1020.4 c 146.4,0 254,-123.5 240.5,-275.9 l -94.7,-1062.1 c -13.6,-152.4 -143.3,-275.9 -289.7,-275.9" /><path
         id="path272"
         style="fill:#9bc1f9;fill-opacity:1;fill-rule:nonzero;stroke:none"
         d="m 15323.3,4389.9 h -1020.4 c -146.3,0 -254,123.5 -240.4,275.9 l 94.7,1062.1 c 13.6,152.4 143.2,275.9 289.6,275.9 h 1020.4 c 146.4,0 254,-123.5 240.5,-275.9 L 15613,4665.8 c -13.6,-152.4 -143.3,-275.9 -289.7,-275.9" /><g
         transform="scale(1.09943)"
         id="g274"><path
           id="path276"
           style="fill:#9bc1f9;fill-opacity:1;fill-rule:nonzero;stroke:none"
           d="M 15938.1,3992.89 H 15010 c -133.1,0 -231.1,112.33 -218.7,250.95 l 86.1,966.05 c 12.4,138.61 130.3,250.94 263.5,250.94 h 928.1 c 133.1,0 231,-112.33 218.6,-250.94 l -86,-966.05 c -12.4,-138.62 -130.4,-250.95 -263.5,-250.95" /></g><g
         transform="scale(1.23437)"
         id="g278"><path
           id="path280"
           style="fill:#9bc1f9;fill-opacity:1;fill-rule:nonzero;stroke:none"
           d="M 15977.6,3556.4 H 15151 c -118.6,0 -205.8,100.04 -194.8,223.51 l 76.8,860.44 c 11,123.46 116,223.52 234.6,223.52 h 826.6 c 118.6,0 205.8,-100.06 194.8,-223.52 l -76.7,-860.44 c -11,-123.47 -116,-223.51 -234.7,-223.51" /></g><g
         transform="scale(1.36931)"
         id="g282"><path
           id="path284"
           style="fill:#f47458;fill-opacity:1;fill-rule:nonzero;stroke:none"
           d="m 16009.4,3205.93 h -745.2 c -106.9,0 -185.5,90.19 -175.5,201.49 l 69.1,775.65 c 9.9,111.29 104.6,201.49 211.5,201.49 h 745.2 c 106.9,0 185.5,-90.2 175.6,-201.49 l -69.2,-775.65 c -9.8,-111.3 -104.6,-201.49 -211.5,-201.49" /></g><g
         transform="scale(1.50425)"
         id="g286"><path
           id="path288"
           style="fill:#f47458;fill-opacity:1;fill-rule:nonzero;stroke:none"
           d="m 16035.5,2918.34 h -678.4 c -97.3,0 -168.8,82.1 -159.8,183.42 l 63,706.06 c 9,101.32 95.2,183.42 192.5,183.42 h 678.3 c 97.4,0 168.9,-82.1 159.9,-183.42 l -63,-706.06 c -9,-101.32 -95.2,-183.42 -192.5,-183.42" /></g><path
         id="path290"
         style="fill:#9bc1f9;fill-opacity:1;fill-rule:nonzero;stroke:none"
         d="M 10707.7,1959.8 H 9687.32 c -146.38,0 -254.02,123.6 -240.44,275.9 l 94.69,1062.2 c 13.59,152.4 143.26,275.9 289.63,275.9 h 1020.4 c 146.4,0 254,-123.5 240.4,-275.9 l -94.7,-1062.2 c -13.5,-152.3 -143.2,-275.9 -289.6,-275.9" /><path
         id="path292"
         style="fill:#9bc1f9;fill-opacity:1;fill-rule:nonzero;stroke:none"
         d="m 12907.2,1959.8 h -1020.4 c -146.4,0 -254,123.6 -240.4,275.9 l 94.7,1062.2 c 13.5,152.4 143.2,275.9 289.6,275.9 h 1020.4 c 146.4,0 254,-123.5 240.4,-275.9 l -94.7,-1062.2 c -13.5,-152.3 -143.2,-275.9 -289.6,-275.9" /><path
         id="path294"
         style="fill:#9bc1f9;fill-opacity:1;fill-rule:nonzero;stroke:none"
         d="m 15106.7,1959.8 h -1020.4 c -146.4,0 -254,123.6 -240.4,275.9 l 94.7,1062.2 c 13.5,152.4 143.2,275.9 289.6,275.9 h 1020.4 c 146.4,0 254,-123.5 240.4,-275.9 l -94.7,-1062.2 c -13.6,-152.3 -143.2,-275.9 -289.6,-275.9" /><g
         transform="scale(1.08614)"
         id="g296"><path
           id="path298"
           style="fill:#9bc1f9;fill-opacity:1;fill-rule:nonzero;stroke:none"
           d="m 15933.7,1804.37 h -939.5 c -134.8,0 -233.9,113.8 -221.3,254.02 l 87.1,977.96 c 12.5,140.31 131.9,254.01 266.7,254.01 h 939.4 c 134.8,0 233.9,-113.7 221.4,-254.01 l -87.2,-977.96 c -12.5,-140.22 -131.9,-254.02 -266.6,-254.02" /></g><g
         transform="scale(1.22108)"
         id="g300"><path
           id="path302"
           style="fill:#9bc1f9;fill-opacity:1;fill-rule:nonzero;stroke:none"
           d="m 15974.1,1604.97 h -835.6 c -119.9,0 -208,101.23 -196.9,225.95 l 77.6,869.89 c 11,124.8 117.2,225.94 237.1,225.94 h 835.7 c 119.8,0 208,-101.14 196.9,-225.94 l -77.6,-869.89 c -11.1,-124.72 -117.3,-225.95 -237.2,-225.95" /></g><g
         transform="scale(1.59521)"
         id="g304"><path
           id="path306"
           style="fill:#e0c8a9;fill-opacity:1;fill-rule:nonzero;stroke:none"
           d="m 16054.5,745.734 h -9479 c -162.11,0 -296.57,133.714 -300.33,298.646 l -147.99,6438.54 c -3.21,139.41 105.28,252.43 242.33,252.43 h 9524.39 c 137,0 250.7,-113.02 253.9,-252.43 l 149,-6484.743 c 3.2,-139.416 -105.3,-252.443 -242.3,-252.443" /></g><g
         transform="scale(1.60186)"
         id="g308"><path
           id="path310"
           style="fill:#fef8f8;fill-opacity:1;fill-rule:nonzero;stroke:none"
           d="M 16055.5,738.205 H 6615.81 c -161.43,0 -295.34,133.095 -299.09,297.345 l -147.35,6411.82 c -3.19,138.84 104.84,251.39 241.31,251.39 h 9484.82 c 136.5,0 249.7,-112.55 252.9,-251.39 L 16296.8,989.6 c 3.2,-138.838 -104.9,-251.395 -241.3,-251.395" /></g><g
         transform="scale(1.02574)"
         id="g312"><path
           id="path314"
           style="fill:#f7cc7f;fill-opacity:1;fill-rule:nonzero;stroke:none"
           d="m 6148.75,15980.9 c -11.05,159.1 108.96,297 268.04,308.1 159.08,11 296.99,-109 308.02,-268.1 11.05,-159.1 -108.95,-297 -268.04,-308 -159.07,-11.1 -296.98,109 -308.02,268" /></g><path
         id="path316"
         style="fill:#f7cc7f;fill-opacity:1;fill-rule:nonzero;stroke:none"
         d="m 6809.26,15556 c -17.68,85.9 -28.38,177.9 -57.69,260.7 -25.2,71.2 -136.33,49.5 -130.7,-27 6.9,-93.7 36.16,-188.6 55.78,-280.4 7.94,-37.1 57.1,-54.4 89.63,-42.9 39.77,13.9 50.66,52.3 42.98,89.6 v 0" /><path
         id="path318"
         style="fill:#f7cc7f;fill-opacity:1;fill-rule:nonzero;stroke:none"
         d="m 7316.81,15922.9 c -98.16,57.9 -183.71,129.6 -274.29,198 -70.76,53.5 -147.04,-38.5 -88.84,-102.1 83.58,-91.2 193.31,-162.5 299.24,-225 33.51,-19.8 80.12,-0.4 96.49,32.6 18.35,37 1,76.7 -32.6,96.5 v 0" /><g
         transform="scale(1.0141)"
         id="g320"><path
           id="path322"
           style="fill:#f7cc7f;fill-opacity:1;fill-rule:nonzero;stroke:none"
           d="m 7031.81,16224.4 c -21.92,-17.6 -26.29,-42.9 -12.76,-67.4 32.73,-59.4 115.82,-56.4 174.83,-54.4 61.57,2.1 123.17,14.6 181.38,34.5 86.06,29.3 39.42,162.9 -46.96,133.4 -168.93,-57.7 -232.89,4.9 -296.49,-46.1" /></g><g
         transform="scale(1.04668)"
         id="g324"><path
           id="path326"
           style="fill:#f7cc7f;fill-opacity:1;fill-rule:nonzero;stroke:none"
           d="m 6722.76,16269.4 c -82.36,-120.5 -149.65,-161.2 -139.17,-227.5 6.12,-38.8 36.78,-57.3 74.2,-48.8 44.25,10 68.33,56.9 94.86,89.9 25.43,31.5 50.37,63.2 73.07,96.8 20.61,30.5 23.51,70 -6.69,96.3 -25.29,22 -75.36,23.9 -96.27,-6.7 v 0" /></g><g
         transform="scale(1.05653)"
         id="g328"><path
           id="path330"
           style="fill:#f7cc7f;fill-opacity:1;fill-rule:nonzero;stroke:none"
           d="m 6342.26,16138.5 c -26.08,72.3 -31.81,98.7 -65.64,132.3 -29.4,29.2 -91.49,10.6 -95.6,-32.5 -4.79,-50.2 5.73,-68.8 33.15,-144.9 12.42,-34.5 51.8,-53.7 86.58,-41.5 34.49,12.1 53.99,52 41.51,86.6 v 0" /></g><g
         transform="scale(1.04214)"
         id="g332"><path
           id="path334"
           style="fill:#f7cc7f;fill-opacity:1;fill-rule:nonzero;stroke:none"
           d="m 6081.8,16183.9 c -119.24,90.6 -143.5,116.1 -190.33,111.2 -27.47,-2.9 -58.3,-29.3 -52.3,-60.1 11.14,-57.3 44.46,-72.9 154.09,-152.9 29.41,-21.4 69.79,-22.5 95.14,6.7 22.71,26.1 22.51,73 -6.6,95.1 v 0" /></g><g
         transform="scale(1.01301)"
         id="g336"><path
           id="path338"
           style="fill:#f7cc7f;fill-opacity:1;fill-rule:nonzero;stroke:none"
           d="m 5763.92,16222 c -48.33,-25.6 -28.92,-109.2 23.43,-116 50.19,-6.6 69.57,1.5 313.08,45.9 37.61,6.9 68.59,34.3 65.72,75.5 -2.41,35 -37.66,72.6 -75.52,65.8 -252.9,-45.7 -278.21,-45.5 -326.71,-71.2" /></g><path
         id="path340"
         style="fill:#f7cc7f;fill-opacity:1;fill-rule:nonzero;stroke:none"
         d="m 6225.41,16029.6 c -135.21,-130.9 -155,-107.8 -208.39,-187.8 -24.42,-36.6 15.84,-94.9 58.36,-87.1 54.55,10 69.21,19.2 140.32,75.5 41.32,32.8 80.82,67.9 118.79,104.4 28.14,27.1 20.54,78 -7.09,102 -31.57,27.5 -73.85,20.2 -101.99,-7 v 0" /><g
         transform="scale(1.05558)"
         id="g342"><path
           id="path344"
           style="fill:#50bfa5;fill-opacity:1;fill-rule:nonzero;stroke:none"
           d="m 8893.85,15423.8 161.8,190.1 285.4,20.2 162.87,218.5 287.8,-45.7 197.81,244.1 281.67,-16.6 237.9,222.5 -98.3,43.1 -177.9,-166.4 -297.18,17.5 -190.14,-234.6 -292.66,46.5 -179.7,-241.1 -278.69,-19.7 -149.96,-176.3 -176.44,14.5 -49.03,-94.1 274.75,-22.5" /></g><g
         transform="scale(1.31661)"
         id="g346"><path
           id="path348"
           style="fill:#fed333;fill-opacity:1;fill-rule:nonzero;stroke:none"
           d="m 16290,12791.4 -122.5,-136.7 43.1,-178.6 c 3.5,-14.4 -11.1,-26.5 -24.7,-20.5 l -167.8,74.3 -156.5,-96.1 c -12.7,-7.8 -28.7,2.3 -27.2,17 l 18.8,182.7 -139.8,119.1 c -11.3,9.6 -6.7,28 7.8,31.1 l 179.6,38.6 70.1,169.7 c 5.6,13.7 24.5,15 32,2.2 l 92.1,-158.9 183.1,-14.1 c 14.8,-1.2 21.9,-18.8 11.9,-29.8" /></g><g
         transform="scale(1.05248)"
         id="g350"><path
           id="path352"
           style="fill:#f47458;fill-opacity:1;fill-rule:nonzero;stroke:none"
           d="m 13090.8,15777.3 -217.1,335.7 -208.7,-165.1 -79.2,100 318.8,252.1 215.9,-333.6 242.3,198.3 202.5,-301.1 277,169.6 66.6,-108.7 -381.2,-233.5 -192.6,286.3 -244.3,-200" /></g><g
         transform="scale(1.10279)"
         id="g354"><path
           id="path356"
           style="fill:#07345a;fill-opacity:1;fill-rule:nonzero;stroke:none"
           d="m 15919.7,15602.2 107.6,175.6 -171.2,69.5 -107.6,-175.7 z m -436.3,-156.7 120.5,195.6 -96.8,39.2 c -21.1,8.6 -31.4,32.7 -22.8,53.8 v 0 c 8.7,21.2 32.8,31.4 53.9,22.8 l 111.5,-45.2 107.7,175.6 -103.3,41.9 c -21.1,8.6 -31.4,32.7 -22.8,53.9 v 0 c 8.6,21.1 32.7,31.3 53.9,22.8 l 118.1,-47.9 125,201.1 c 10.6,17.1 32,24 50.6,16.5 l 18,-7.3 c 23.7,-9.6 33.1,-38.2 19.7,-60 l -116.2,-189.7 171.2,-69.5 125,201.2 c 10.6,17 32,24 50.7,16.4 l 19.7,-7.9 c 23.7,-9.6 33,-38.2 19.7,-59.9 l -116.3,-189.8 96.7,-39.2 c 21.2,-8.6 31.4,-32.7 22.7,-53.9 v 0 c -8.5,-21.2 -32.6,-31.4 -53.7,-22.8 l -111.6,45.2 -106,-176.3 103.3,-41.8 c 21.1,-8.6 31.4,-32.7 22.8,-53.9 v 0 c -8.6,-21.2 -32.8,-31.3 -53.9,-22.8 l -118.1,47.9 -127.7,-207.4 c -10.5,-17.2 -32,-24.2 -50.7,-16.6 l -21.1,8.5 c -23.7,9.6 -33,38.2 -19.7,60 l 120.4,195.6 -171.2,69.4 -127.7,-207.4 c -10.6,-17.2 -32.1,-24.2 -50.8,-16.6 l -21,8.5 c -23.7,9.6 -33.1,38.2 -19.7,60" /></g><g
         transform="scale(1.55513)"
         id="g358"><path
           id="path360"
           style="fill:#256653;fill-opacity:1;fill-rule:nonzero;stroke:none"
           d="m 16225.7,10937 -186.2,29.9 -107.7,-159.3 -206.4,48.3 -62.4,-205 -235.7,44.2 -80.8,-181.7 -233.7,5.5 2,88.5 174.8,-4.1 85.3,191.7 226.6,-42.5 63.4,208.4 227.7,-53.2 105.2,155.5 172.6,-27.7 47.7,116.6 81.9,-33.5 -74.3,-181.6" /></g><g
         transform="scale(1.58317)"
         id="g362"><path
           id="path364"
           style="fill:#b75742;fill-opacity:1;fill-rule:nonzero;stroke:none"
           d="M 15607.1,8772.08 H 6691.91 c -327.26,0 -574.46,-262.28 -552.13,-585.8 l 59.92,-867.92 H 16300 l -59.9,867.92 c -22.3,323.52 -305.7,585.8 -633,585.8" /></g><g
         transform="scale(1.58764)"
         id="g366"><path
           id="path368"
           style="fill:#f47458;fill-opacity:1;fill-rule:nonzero;stroke:none"
           d="M 15609.1,8747.37 H 6718.91 c -326.33,0 -572.79,-261.54 -550.53,-584.16 l 59.75,-865.47 H 16300 l -59.7,865.47 c -22.3,322.62 -304.9,584.16 -631.2,584.16" /></g><path
         id="path370"
         style="fill:#f47458;fill-opacity:1;fill-rule:nonzero;stroke:none"
         d="m 11854.2,9057.9 h -1020.4 c -146.4,0 -269.1,122.2 -274.1,272.9 l -34.6,1051 c -5,150.8 109.6,273 256,273 h 1020.4 c 146.4,0 269.1,-122.2 274,-273 l 34.7,-1051 c 5,-150.7 -109.7,-272.9 -256,-272.9" /><path
         id="path372"
         style="fill:#9bc1f9;fill-opacity:1;fill-rule:nonzero;stroke:none"
         d="m 14053.7,9057.9 h -1020.4 c -146.4,0 -269.1,122.2 -274.1,272.9 l -34.6,1051 c -5,150.8 109.6,273 256,273 H 14001 c 146.4,0 269.1,-122.2 274,-273 l 34.7,-1051 c 5,-150.7 -109.7,-272.9 -256,-272.9" /><g
         transform="scale(1.01314)"
         id="g374"><path
           id="path376"
           style="fill:#9bc1f9;fill-opacity:1;fill-rule:nonzero;stroke:none"
           d="m 16042.4,8940.41 h -1007.2 c -144.5,0 -265.6,120.62 -270.5,269.36 l -34.2,1037.43 c -4.9,148.8 108.2,269.4 252.7,269.4 h 1007.2 c 144.5,0 265.6,-120.6 270.4,-269.4 l 34.3,-1037.43 c 4.9,-148.74 -108.3,-269.36 -252.7,-269.36" /></g><g
         transform="scale(1.14808)"
         id="g378"><path
           id="path380"
           style="fill:#9bc1f9;fill-opacity:1;fill-rule:nonzero;stroke:none"
           d="m 16072.6,7889.61 h -888.7 c -127.5,0 -234.4,106.44 -238.8,237.7 l -30.1,915.48 c -4.4,131.31 95.5,237.77 223,237.77 h 888.8 c 127.5,0 234.4,-106.46 238.6,-237.77 l 30.2,-915.48 c 4.4,-131.26 -95.5,-237.7 -223,-237.7" /></g><g
         transform="scale(1.28301)"
         id="g382"><path
           id="path384"
           style="fill:#9bc1f9;fill-opacity:1;fill-rule:nonzero;stroke:none"
           d="m 16096.6,7059.87 h -795.3 c -114.1,0 -209.7,95.25 -213.6,212.7 l -27,819.2 c -3.9,117.51 85.5,212.76 199.6,212.76 h 795.3 c 114.1,0 209.7,-95.25 213.5,-212.76 l 27.1,-819.2 c 3.8,-117.45 -85.5,-212.7 -199.6,-212.7" /></g><g
         transform="scale(1.41795)"
         id="g386"><path
           id="path388"
           style="fill:#9bc1f9;fill-opacity:1;fill-rule:nonzero;stroke:none"
           d="m 16115.9,6388.02 h -719.5 c -103.3,0 -189.8,86.18 -193.3,192.46 l -24.4,741.24 c -3.6,106.32 77.3,192.52 180.5,192.52 h 719.6 c 103.3,0 189.7,-86.2 193.3,-192.52 l 24.4,-741.24 c 3.5,-106.28 -77.3,-192.46 -180.6,-192.46" /></g><g
         transform="scale(1.55289)"
         id="g390"><path
           id="path392"
           style="fill:#f47458;fill-opacity:1;fill-rule:nonzero;stroke:none"
           d="m 16131.9,5832.93 h -657.1 c -94.2,0 -173.2,78.69 -176.4,175.74 l -22.3,676.83 c -3.2,97.08 70.6,175.79 164.9,175.79 h 657.1 c 94.2,0 173.2,-78.71 176.4,-175.79 l 22.3,-676.83 c 3.2,-97.05 -70.6,-175.74 -164.9,-175.74" /></g><path
         id="path394"
         style="fill:#f47458;fill-opacity:1;fill-rule:nonzero;stroke:none"
         d="m 11933.4,6653.4 h -1020.3 c -146.4,0 -269.1,122.3 -274.1,273 l -34.6,1051 c -5,150.8 109.6,273 256,273 h 1020.4 c 146.4,0 269.1,-122.2 274,-273 l 34.7,-1051 c 5,-150.7 -109.7,-273 -256.1,-273" /><path
         id="path396"
         style="fill:#9bc1f9;fill-opacity:1;fill-rule:nonzero;stroke:none"
         d="m 14132.9,6653.4 h -1020.4 c -146.3,0 -269,122.3 -274,273 l -34.6,1051 c -5,150.8 109.6,273 256,273 h 1020.4 c 146.4,0 269.1,-122.2 274,-273 l 34.7,-1051 c 4.9,-150.7 -109.7,-273 -256.1,-273" /><g
         transform="scale(1.018)"
         id="g398"><path
           id="path400"
           style="fill:#9bc1f9;fill-opacity:1;fill-rule:nonzero;stroke:none"
           d="m 16043.6,6535.75 h -1002.3 c -143.8,0 -264.3,120.14 -269.2,268.18 l -34.1,1032.42 c -4.8,148.13 107.8,268.17 251.6,268.17 h 1002.3 c 143.9,0 264.3,-120.04 269.2,-268.17 l 34.1,-1032.42 c 4.8,-148.04 -107.8,-268.18 -251.6,-268.18" /></g><g
         transform="scale(1.15294)"
         id="g402"><path
           id="path404"
           style="fill:#9bc1f9;fill-opacity:1;fill-rule:nonzero;stroke:none"
           d="m 16073.6,5770.82 h -885 c -126.9,0 -233.3,106.07 -237.7,236.79 l -30.1,911.58 c -4.2,130.79 95.2,236.79 222.2,236.79 h 885 c 126.9,0 233.3,-106 237.7,-236.79 l 30,-911.58 c 4.3,-130.72 -95.1,-236.79 -222.1,-236.79" /></g><g
         transform="scale(1.28788)"
         id="g406"><path
           id="path408"
           style="fill:#9bc1f9;fill-opacity:1;fill-rule:nonzero;stroke:none"
           d="M 16097.3,5166.17 H 15305 c -113.6,0 -208.8,94.97 -212.7,211.98 l -27,816.07 c -3.8,117.09 85.2,211.98 198.9,211.98 h 792.3 c 113.6,0 208.9,-94.89 212.8,-211.98 l 26.9,-816.07 c 3.8,-117.01 -85.2,-211.98 -198.9,-211.98" /></g><g
         transform="scale(1.42282)"
         id="g410"><path
           id="path412"
           style="fill:#9bc1f9;fill-opacity:1;fill-rule:nonzero;stroke:none"
           d="m 16116.6,4676.22 h -717.2 c -102.8,0 -189.1,85.96 -192.6,191.87 l -24.4,738.68 c -3.4,105.99 77.1,191.87 180,191.87 h 717.2 c 102.8,0 189.1,-85.88 192.6,-191.87 l 24.4,-738.68 c 3.4,-105.91 -77.1,-191.87 -180,-191.87" /></g><g
         transform="scale(1.55775)"
         id="g414"><path
           id="path416"
           style="fill:#f47458;fill-opacity:1;fill-rule:nonzero;stroke:none"
           d="m 16132.5,4271.15 h -655.1 c -94,0 -172.7,78.51 -175.9,175.25 l -22.3,674.69 c -3.1,96.8 70.5,175.25 164.4,175.25 h 655.1 c 93.9,0 172.7,-78.45 175.9,-175.25 l 22.2,-674.69 c 3.2,-96.74 -70.4,-175.25 -164.3,-175.25" /></g><path
         id="path418"
         style="fill:#f47458;fill-opacity:1;fill-rule:nonzero;stroke:none"
         d="m 12012.7,4249 h -1020.4 c -146.3,0 -269,122.2 -274,273 l -34.7,1051 c -4.9,150.8 109.7,273 256.1,273 h 1020.4 c 146.3,0 269,-122.2 274,-273 l 34.7,-1051 c 4.9,-150.8 -109.7,-273 -256.1,-273" /><path
         id="path420"
         style="fill:#9bc1f9;fill-opacity:1;fill-rule:nonzero;stroke:none"
         d="m 14212.2,4249 h -1020.4 c -146.3,0 -269,122.2 -274,273 l -34.7,1051 c -4.9,150.8 109.7,273 256.1,273 h 1020.4 c 146.3,0 269,-122.2 274,-273 l 34.7,-1051 c 4.9,-150.8 -109.7,-273 -256.1,-273" /><g
         transform="scale(1.02286)"
         id="g422"><path
           id="path424"
           style="fill:#9bc1f9;fill-opacity:1;fill-rule:nonzero;stroke:none"
           d="m 16044.8,4154.02 h -997.6 c -143,0 -262.9,119.47 -267.8,266.9 l -34,1027.5 c -4.7,147.43 107.3,266.9 250.4,266.9 h 997.6 c 143,0 263,-119.47 267.9,-266.9 l 33.8,-1027.5 c 4.9,-147.43 -107.1,-266.9 -250.3,-266.9" /></g><g
         transform="scale(1.1578)"
         id="g426"><path
           id="path428"
           style="fill:#9bc1f9;fill-opacity:1;fill-rule:nonzero;stroke:none"
           d="m 16074.6,3669.88 h -881.3 c -126.5,0 -232.5,105.54 -236.7,235.79 l -30,907.75 c -4.2,130.25 94.8,235.8 221.2,235.8 h 881.3 c 126.4,0 232.4,-105.55 236.7,-235.8 l 29.9,-907.75 c 4.3,-130.25 -94.7,-235.79 -221.1,-235.79" /></g><g
         transform="scale(1.29274)"
         id="g430"><path
           id="path432"
           style="fill:#9bc1f9;fill-opacity:1;fill-rule:nonzero;stroke:none"
           d="m 16098.1,3286.81 h -789.3 c -113.3,0 -208.1,94.53 -212,211.18 l -26.8,813 c -3.8,116.65 84.8,211.18 198.1,211.18 h 789.2 c 113.3,0 208.2,-94.53 212.1,-211.18 l 26.7,-813 c 3.9,-116.65 -84.7,-211.18 -198,-211.18" /></g><g
         transform="scale(1.42768)"
         id="g434"><path
           id="path436"
           style="fill:#9bc1f9;fill-opacity:1;fill-rule:nonzero;stroke:none"
           d="m 16117.2,2976.15 h -714.7 c -102.6,0 -188.5,85.6 -192,191.22 l -24.3,736.16 c -3.5,105.63 76.9,191.22 179.3,191.22 h 714.8 c 102.5,0 188.5,-85.59 192,-191.22 l 24.2,-736.16 c 3.5,-105.62 -76.8,-191.22 -179.3,-191.22" /></g><g
         transform="scale(1.56262)"
         id="g438"><path
           id="path440"
           style="fill:#f47458;fill-opacity:1;fill-rule:nonzero;stroke:none"
           d="m 16133,2719.15 h -653 c -93.7,0 -172.2,78.2 -175.4,174.71 l -22.2,672.59 c -3.2,96.5 70.2,174.7 163.8,174.7 h 653 c 93.7,0 172.3,-78.2 175.5,-174.7 l 22.1,-672.59 c 3.2,-96.51 -70.1,-174.71 -163.8,-174.71" /></g><path
         id="path442"
         style="fill:#f47458;fill-opacity:1;fill-rule:nonzero;stroke:none"
         d="m 12092,1844.6 h -1020.4 c -146.4,0 -269.1,122.2 -274,273 l -34.7,1051 c -4.9,150.8 109.7,273 256.1,273 h 1020.4 c 146.3,0 269,-122.2 274,-273 l 34.6,-1051 c 5,-150.8 -109.6,-273 -256,-273" /><path
         id="path444"
         style="fill:#9bc1f9;fill-opacity:1;fill-rule:nonzero;stroke:none"
         d="m 14291.5,1844.6 h -1020.4 c -146.4,0 -269.1,122.2 -274,273 l -34.7,1051 c -5,150.8 109.7,273 256.1,273 h 1020.3 c 146.4,0 269.1,-122.2 274.1,-273 l 34.6,-1051 c 5,-150.8 -109.6,-273 -256,-273" /><g
         transform="scale(1.02773)"
         id="g446"><path
           id="path448"
           style="fill:#9bc1f9;fill-opacity:1;fill-rule:nonzero;stroke:none"
           d="m 16046,1794.83 h -992.8 c -142.5,0 -261.9,118.9 -266.6,265.63 l -33.8,1022.65 c -4.9,146.72 106.7,265.63 249.1,265.63 h 992.9 c 142.4,0 261.8,-118.91 266.7,-265.63 l 33.6,-1022.65 c 4.9,-146.73 -106.6,-265.63 -249.1,-265.63" /></g><g
         transform="scale(1.16267)"
         id="g450"><path
           id="path452"
           style="fill:#9bc1f9;fill-opacity:1;fill-rule:nonzero;stroke:none"
           d="m 16075.5,1586.52 h -877.6 c -125.9,0 -231.5,105.11 -235.7,234.81 l -29.8,903.95 c -4.3,129.7 94.3,234.81 220.2,234.81 h 877.6 c 125.9,0 231.4,-105.11 235.7,-234.81 l 29.8,-903.95 c 4.3,-129.7 -94.3,-234.81 -220.2,-234.81" /></g><g
         transform="scale(1.29761)"
         id="g454"><path
           id="path456"
           style="fill:#9bc1f9;fill-opacity:1;fill-rule:nonzero;stroke:none"
           d="m 16098.9,1421.54 h -786.4 c -112.8,0 -207.4,94.17 -211.2,210.39 l -26.7,809.95 c -3.9,116.21 84.5,210.39 197.3,210.39 h 786.3 c 112.9,0 207.4,-94.18 211.3,-210.39 l 26.6,-809.95 c 3.9,-116.22 -84.4,-210.39 -197.2,-210.39" /></g><path
         id="path458"
         style="fill:#ffffff;fill-opacity:1;fill-rule:nonzero;stroke:none"
         d="m 10719,12256.1 c 22.1,-12.9 53.8,-23.7 86.4,-23.7 48.3,0 74.8,25.3 72.3,61.8 -2.3,33.8 -23.2,53.1 -73.9,71.9 -61.2,21 -100.3,51.6 -103.8,102.6 -3.9,56.4 40.5,98.2 111.6,98.2 37.5,0 65.2,-8.6 82.2,-17.7 l -10.4,-38.1 c -12.4,6.4 -37.6,17.2 -70.7,17.2 -50,0 -67,-29.5 -65.3,-54.3 2.4,-33.8 25.8,-50.4 77.6,-69.7 63.6,-23.7 97.1,-53.2 100.8,-106.4 3.8,-55.8 -34.7,-104.1 -121,-104.1 -35.3,0 -74.6,10.2 -95,23.1 l 9.2,39.2" /><path
         id="path460"
         style="fill:#ffffff;fill-opacity:1;fill-rule:nonzero;stroke:none"
         d="m 11210.6,12270 c 1.9,-26.8 4,-50.4 7.1,-70.8 h -42.4 l -5.6,42.4 h -1.1 c -11,-21 -36.9,-48.3 -83.6,-48.3 -41.2,0 -92.2,22.5 -98.5,113.8 l -10.5,151.9 h 47.8 l 9.9,-143.9 c 3.4,-49.4 20.9,-82.7 64.4,-82.7 32,0 52.8,22.1 60,43 2.2,7 3.3,15.6 2.7,24.2 l -11,159.4 h 47.8 l 13,-189" /><path
         id="path462"
         style="fill:#ffffff;fill-opacity:1;fill-rule:nonzero;stroke:none"
         d="m 11281.7,12388.7 c -1.9,26.8 -3.9,48.8 -7,70.3 h 42.3 l 5.7,-42.9 h 1.1 c 11.3,24.7 40.1,48.8 83.5,48.8 36.4,0 94.4,-21.5 100.5,-110.6 l 10.7,-155.1 h -47.8 l -10.3,149.7 c -2.9,41.9 -21.1,76.8 -66.1,76.8 -31.5,0 -54.4,-22 -60.8,-48.3 -1.7,-5.9 -2.3,-14 -1.7,-22 l 10.8,-156.2 h -47.8 l -13.1,189.5" /><path
         id="path464"
         style="fill:#ffffff;fill-opacity:1;fill-rule:nonzero;stroke:none"
         d="m 13249.3,12388.7 c -0.9,3 -2.6,11.2 -5.1,24.6 -2.2,11.2 -4.1,20.5 -5.7,27.8 -0.9,-8.7 -2.6,-17.5 -4.9,-26.2 -2.3,-8.7 -5.4,-17.6 -9.2,-26.7 l -87.4,-204.5 -116,208.7 c -4.8,8.5 -9,16.8 -12.7,24.9 -3.6,8 -6.9,16 -9.7,23.8 0.4,-8 0.3,-16.5 -0.3,-25.3 -0.5,-8.8 -1.6,-18 -3.2,-27.6 l -28.6,-189 h -58.1 l 64.1,400 131.3,-242.2 c 2,-3.9 5.2,-10.3 9.4,-19.2 4.3,-8.9 9.4,-19.9 15.4,-33 3,11 7.9,25 14.6,41.9 1.8,4.6 3.2,8.1 4.1,10.5 l 95.2,242 121.5,-400 h -58.6 l -56.1,189.5" /><path
         id="path466"
         style="fill:#ffffff;fill-opacity:1;fill-rule:nonzero;stroke:none"
         d="m 13598.6,12322.6 c -1.6,23.1 -10.5,42.6 -26.6,58.6 -16.1,16 -35.1,24 -56.8,24 -21.6,0 -39.4,-8 -53.4,-24 -14,-16 -20.2,-35.5 -18.6,-58.6 1.6,-23 10.5,-42.6 26.7,-58.6 16.2,-15.9 35.1,-23.9 56.7,-23.9 21.6,0 39.3,8 53.4,23.9 14,16 20.2,35.6 18.6,58.6 z m -216.1,0.6 c -1.3,18.1 1,35.3 6.9,51.5 5.8,16.1 14.9,30.5 27.1,43.1 12,12.4 26.2,21.9 42.6,28.6 16.3,6.6 33.6,9.9 52,9.9 18.9,0 37,-3.3 54.2,-9.9 17.1,-6.7 32.8,-16.5 46.9,-29.4 14.2,-12.8 25.2,-27.2 33.2,-43.3 8,-16 12.6,-32.9 13.9,-50.5 1.2,-18.4 -1,-35.6 -6.7,-51.7 -5.7,-16.1 -14.6,-30.3 -26.8,-42.7 -12.9,-13.1 -27.5,-23 -43.9,-29.8 -16.3,-6.7 -33.7,-10.1 -52.3,-10.1 -18.2,0 -35.9,3.4 -53.2,10.1 -17.3,6.8 -32.9,16.5 -46.8,29.3 -14.2,12.9 -25.3,27.4 -33.3,43.5 -8,16.1 -12.6,33.2 -13.8,51.4" /><path
         id="path468"
         style="fill:#ffffff;fill-opacity:1;fill-rule:nonzero;stroke:none"
         d="m 13728.8,12199.2 -17.1,248.5 h 54 l 2.9,-40.7 c 10.3,17.2 22.9,29.7 37.9,37.5 15,7.9 33.7,11.8 56,11.8 18.7,0 34.9,-2.9 48.4,-8.8 13.6,-5.8 24.5,-14.5 32.7,-26 4.9,-6.9 8.6,-14.8 11.2,-23.9 2.6,-9.1 4.7,-25 6.2,-47.7 l 10.4,-150.7 h -58 l -8.8,127.6 c -2.3,32.7 -7.8,54.4 -16.6,65.2 -8.8,10.7 -23.4,16.1 -43.9,16.1 -13.5,0 -25.3,-2.5 -35.5,-7.3 -10.2,-4.9 -17.9,-11.9 -23.3,-20.8 -3.9,-5.9 -6.3,-13.6 -7.3,-22.9 -1.1,-9.3 -0.9,-24.2 0.5,-44.7 l 7.9,-113.2 h -57.6" /><path
         id="path470"
         style="fill:#ffffff;fill-opacity:1;fill-rule:nonzero;stroke:none"
         d="m 15261.5,12530 22.8,-330.8 h -63.1 l -22.9,330.8 h -103.1 l -3.7,52.9 h 268.9 l 3.7,-52.9 h -102.6" /><path
         id="path472"
         style="fill:#ffffff;fill-opacity:1;fill-rule:nonzero;stroke:none"
         d="m 15414.3,12447.7 9.7,-140 c 1.6,-24.1 7.8,-41.4 18.6,-51.9 10.9,-10.5 27.6,-15.7 50.2,-15.7 22.6,0 38.6,5.2 48,15.7 9.3,10.5 13.2,27.8 11.5,51.9 l -9.7,140 h 57.6 l 8.5,-123 c 3.2,-47.5 -4,-82 -21.8,-103.5 -17.8,-21.5 -47.8,-32.3 -90.1,-32.3 -42.9,0 -74.8,10.7 -95.5,32 -20.7,21.3 -32.8,55.9 -36.1,103.8 l -8.4,123 h 57.5" /><path
         id="path474"
         style="fill:#ffffff;fill-opacity:1;fill-rule:nonzero;stroke:none"
         d="m 15866.8,12353.3 c -3.5,17.8 -11.4,31.4 -23.5,40.8 -12.1,9.3 -28.2,14 -48.2,14 -18.9,0 -33.8,-4.6 -44.6,-13.7 -10.9,-9 -18,-22.7 -21.3,-41.1 z m 62.3,-38.3 h -201 c 3,-23.2 11.3,-41.3 24.7,-54.4 13.5,-13 30.6,-19.5 51.5,-19.5 18.5,0 33.7,3.8 45.6,11.5 11.8,7.7 21.8,20.1 29.8,37.3 l 50.3,-26.8 c -12.4,-25 -28.6,-43.6 -48.6,-55.8 -20,-12.2 -44.1,-18.4 -72.2,-18.4 -40.3,0 -73.2,12.2 -98.8,36.5 -25.5,24.3 -39.7,56.7 -42.5,97.2 -2.7,39 7.5,71 30.4,96.1 22.9,25.1 53.7,37.6 92.4,37.6 40.5,0 72.9,-11.4 97.1,-34.3 24.2,-22.9 37.7,-55 40.5,-96.2 l 0.8,-10.8" /><g
         transform="scale(1.09279)"
         id="g476"><path
           id="path478"
           style="fill:#ffffff;fill-opacity:1;fill-rule:nonzero;stroke:none"
           d="m 15830.5,11514.5 h 57 l 79.4,-177.2 c 5.2,-11.7 9.6,-21.9 13.2,-30.7 3.6,-8.8 6.8,-17.1 9.6,-24.7 4.4,18.5 9,36.7 13.9,54.4 0.6,2.3 1.1,3.8 1.4,4.6 l 58.4,187.6 88.4,-191.2 c 4.2,-9.3 8.2,-18.6 12,-27.9 3.8,-9.2 7.4,-18.6 10.8,-28 1.1,7.2 2.8,15.1 4.9,23.7 2.2,8.7 5,18.9 8.6,30.7 l 54.3,178.7 h 57.6 l -112.5,-364.8 -94.8,200.3 c -4.2,8.9 -8,17.5 -11.5,25.8 -3.5,8.2 -6.6,16 -9.3,23.4 -2.1,-9.5 -4.3,-18.3 -6.4,-26.5 -2.2,-8.3 -4.5,-16.2 -6.9,-23.7 l -65.9,-199.3 -162.2,364.8" /></g><g
         transform="scale(1.10935)"
         id="g480"><path
           id="path482"
           style="fill:#ffffff;fill-opacity:1;fill-rule:nonzero;stroke:none"
           d="m 16242.9,11135.6 c -3.1,16.1 -10.1,28.3 -21.1,36.8 -11,8.4 -25.5,12.6 -43.4,12.6 -17.1,0 -30.5,-4.1 -40.3,-12.3 -9.8,-8.2 -16.2,-20.5 -19.2,-37.1 z m 56.2,-34.5 h -181.2 c 2.8,-20.9 10.2,-37.3 22.3,-49 12.1,-11.8 27.6,-17.6 46.4,-17.6 16.8,0 30.5,3.4 41.1,10.4 10.6,6.9 19.7,18.1 26.9,33.5 l 45.4,-24.1 c -11.3,-22.5 -25.9,-39.3 -43.9,-50.3 -18,-11 -39.8,-16.5 -65.1,-16.5 -36.3,0 -66,10.9 -89,32.8 -23,21.9 -35.7,51.1 -38.3,87.7 -2.4,35.1 6.7,64 27.3,86.6 20.7,22.6 48.5,33.9 83.4,33.9 36.5,0 65.7,-10.3 87.5,-31 21.8,-20.6 34,-49.5 36.6,-86.7 l 0.6,-9.7" /></g><g
         transform="scale(1.12797)"
         id="g484"><path
           id="path486"
           style="fill:#ffffff;fill-opacity:1;fill-rule:nonzero;stroke:none"
           d="m 16242.7,10926 c -1.6,22.8 -8.1,40.5 -19.7,53.2 -11.7,12.7 -27.1,19.1 -46.4,19.1 -19.2,0 -34,-6.6 -44.2,-19.7 -10.1,-13.1 -14.3,-31.2 -12.7,-54.5 1.6,-23.4 8.1,-41.4 19.7,-54.1 11.5,-12.7 27,-19.1 46.4,-19.1 18.5,0 33,6.9 43.5,20.6 10.5,13.7 14.9,31.9 13.4,54.5 z m -18.6,249.4 h 51 l 24.9,-360.2 h -51.1 l -1.9,28.5 c -8.3,-12.7 -18.2,-22.1 -29.9,-28.3 -11.7,-6.2 -25.4,-9.3 -41.1,-9.3 -31.5,0 -57,10.6 -76.6,31.9 -19.5,21.3 -30.6,50.5 -33.2,87.5 -2.4,35.2 4.9,63.6 21.8,85.2 17,21.6 40.5,32.4 70.2,32.4 18.2,0 34,-3.7 47.5,-11.2 13.4,-7.6 23.6,-18.4 30.6,-32.5 l -12.2,176" /></g><g
         transform="scale(1.21412)"
         id="g488"><path
           id="path490"
           style="fill:#ffffff;fill-opacity:1;fill-rule:nonzero;stroke:none"
           d="m 16215.5,10320.2 18.8,-272.5 h -52 l -18.9,272.5 h -84.9 l -3,43.6 h 221.5 l 3,-43.6 h -84.5" /></g><g
         transform="scale(1.23307)"
         id="g492"><path
           id="path494"
           style="fill:#ffffff;fill-opacity:1;fill-rule:nonzero;stroke:none"
           d="m 16103.3,9893.29 -22.8,329.51 h 43.8 l 11.2,-160.9 c 8.3,13.9 18.6,24 30.8,30.4 12.1,6.3 27.3,9.5 45.3,9.5 15.3,0 28.3,-2.3 39.3,-7.1 11.1,-4.7 19.9,-11.8 26.6,-21.1 3.9,-5.6 6.9,-12 9,-19.4 2.1,-7.3 3.8,-20.2 5.1,-38.7 l 8.4,-122.21 h -47.1 l -7.2,103.53 c -1.7,26.48 -6.3,44.08 -13.3,52.88 -7.2,8.7 -19.1,13 -35.7,13 -10.9,0 -20.5,-2 -28.7,-5.9 -8.3,-4 -14.6,-9.6 -19,-16.8 -3.1,-4.8 -5,-11 -5.9,-18.6 -0.8,-7.6 -0.7,-19.7 0.5,-36.26 l 6.3,-91.85 h -46.6" /></g><g
         transform="scale(1.25226)"
         id="g496"><path
           id="path498"
           style="fill:#ffffff;fill-opacity:1;fill-rule:nonzero;stroke:none"
           d="m 16142.2,9940.14 7.7,-111.79 c 1.3,-19.26 6.3,-33.07 14.9,-41.45 8.6,-8.37 22,-12.56 40.1,-12.56 18,0 30.8,4.19 38.2,12.56 7.6,8.38 10.6,22.19 9.2,41.45 l -7.6,111.79 h 45.9 l 6.8,-98.19 c 2.6,-37.95 -3.2,-65.51 -17.4,-82.68 -14.2,-17.16 -38.1,-25.74 -71.9,-25.74 -34.3,0 -59.7,8.5 -76.3,25.53 -16.6,17.03 -26.2,44.66 -28.8,82.89 l -6.8,98.19 h 46" /></g><g
         transform="scale(1.34983)"
         id="g500"><path
           id="path502"
           style="fill:#ffffff;fill-opacity:1;fill-rule:nonzero;stroke:none"
           d="m 16148.7,9037.57 -19.6,284.31 h 160.5 l 2.7,-39.23 h -113.7 l 4.9,-70.88 h 113.7 l 2.8,-40.59 h -113.7 l 9.2,-133.61 h -46.8" /></g><g
         transform="scale(1.36312)"
         id="g504"><path
           id="path506"
           style="fill:#ffffff;fill-opacity:1;fill-rule:nonzero;stroke:none"
           d="m 16221.6,9102.74 c 3.6,12.04 9,20.95 16.1,26.72 7.1,5.77 16.1,8.66 27.1,8.66 6,0 11.9,-0.71 17.7,-2.11 5.9,-1.42 11.8,-3.47 17.5,-6.16 l -12.7,-35.39 c -3.8,2.57 -7.9,4.46 -12.2,5.68 -4.3,1.21 -9,1.82 -14.2,1.82 -14,0 -23.7,-5.54 -29,-16.63 -5.3,-11.09 -7.1,-29.71 -5.3,-55.87 l 5.5,-80 h -42.1 l -12.7,182.69 h 42.2 l 2.1,-29.41" /></g><g
         transform="scale(1.36987)"
         id="g508"><path
           id="path510"
           style="fill:#ffffff;fill-opacity:1;fill-rule:nonzero;stroke:none"
           d="m 16258,8905.33 -12.5,181.42 h 41.9 l 12.6,-181.42 z m -23.6,259.88 c -0.5,7.01 1.7,13.07 6.6,18.16 4.8,5.11 10.9,7.66 18.1,7.66 7.5,0 14,-2.46 19.2,-7.36 5.3,-4.91 8.3,-11.07 8.8,-18.46 0.5,-7.41 -1.6,-13.62 -6.3,-18.67 -4.7,-5.04 -10.7,-7.56 -18,-7.56 -7.3,0 -13.7,2.59 -19.3,7.76 -5.5,5.16 -8.6,11.32 -9.1,18.47" /></g><g
         transform="scale(1.48682)"
         id="g512"><path
           id="path514"
           style="fill:#ffffff;fill-opacity:1;fill-rule:nonzero;stroke:none"
           d="m 16130.7,8256.52 32.8,15.51 c 4,-11.52 10.5,-20.31 19.5,-26.36 9,-6.06 20.2,-9.07 33.5,-9.07 12.5,0 22.3,3.46 29.3,10.39 6.9,6.94 10,16.22 9.2,27.86 -1.1,15.17 -14.7,28.68 -41,40.55 -3.7,1.76 -6.5,3.06 -8.4,3.88 -29.8,13.87 -49.8,26.41 -60.2,37.64 -10.3,11.22 -16,24.95 -17.2,41.17 -1.4,21.04 4.7,38.08 18.2,51.13 13.6,13.04 32,19.57 55.5,19.57 19.2,0 35.6,-3.67 49,-11.02 13.5,-7.35 23.2,-17.9 29.1,-31.65 l -31.9,-16.92 c -5.9,8.11 -12,14.04 -18.5,17.8 -6.5,3.77 -13.8,5.64 -21.9,5.64 -11.4,0 -20.2,-2.94 -26.5,-8.81 -6.4,-5.88 -9.2,-13.75 -8.5,-23.63 1.1,-15.51 16.8,-29.96 47.2,-43.36 2.4,-1.06 4.2,-1.89 5.5,-2.47 26.6,-11.76 45.1,-23.25 55.6,-34.47 10.4,-11.23 16.2,-25.25 17.3,-42.05 1.7,-24.45 -4.8,-43.87 -19.4,-58.27 -14.5,-14.4 -35.1,-21.6 -61.6,-21.6 -22.2,0 -40.8,5.05 -55.6,15.16 -15,10.11 -25.3,24.56 -31,43.38" /></g><g
         transform="scale(1.50558)"
         id="g516"><path
           id="path518"
           style="fill:#ffffff;fill-opacity:1;fill-rule:nonzero;stroke:none"
           d="m 16257.1,8185.7 c -1.2,17.06 -6.1,30.36 -14.8,39.87 -8.7,9.52 -20.3,14.28 -34.8,14.28 -14.4,0 -25.4,-4.91 -33,-14.72 -7.6,-9.81 -10.8,-23.41 -9.6,-40.82 1.2,-17.53 6.1,-31.06 14.7,-40.57 8.7,-9.52 20.3,-14.28 34.9,-14.28 13.7,0 24.5,5.16 32.4,15.5 7.9,10.33 11.3,23.91 10.2,40.74 z m 42.9,-83.05 h -38.3 l -1.4,21.42 c -6.2,-9.53 -13.6,-16.61 -22.4,-21.25 -8.8,-4.63 -19.1,-6.96 -30.8,-6.96 -23.6,0 -42.7,7.98 -57.4,23.94 -14.7,15.96 -22.9,37.81 -24.9,65.55 -1.7,26.35 3.7,47.62 16.4,63.81 12.7,16.2 30.3,24.29 52.6,24.29 13.6,0 25.4,-2.81 35.5,-8.44 10.1,-5.63 17.8,-13.73 22.9,-24.29 l -1.8,26.99 h 38.2 l 11.4,-165.06" /></g><g
         transform="scale(1.51667)"
         id="g520"><path
           id="path522"
           style="fill:#ffffff;fill-opacity:1;fill-rule:nonzero;stroke:none"
           d="m 16242,8043.36 -9,131.01 h -29 l -2.2,32.84 h 29 l -4.3,62.05 h 37.9 l 4.3,-62.05 h 29 l 2.3,-32.84 h -29.1 l 9.1,-131.01 h -38" /></g><g
         transform="scale(1.162)"
         id="g524"><path
           id="path526"
           style="fill:#f47458;fill-opacity:1;fill-rule:nonzero;stroke:none"
           d="m 16270.7,8206.54 c -32.9,-159.9 -107,-329.78 -264.2,-443.11 -199.3,-143.81 -495.5,-145.7 -720.4,-4.65 l -2.6,1.55 c -92.5,54.9 -382,265.83 -228.4,677.45 l 83.7,-31.24 c -125.8,-337.18 91.1,-510.5 190.4,-569.36 2,-1.12 3.4,-2.07 4.4,-2.67 194.9,-122.2 450,-121.69 620.6,1.38 260.4,187.86 259.3,566.35 246.7,720.39 -5.2,64.97 -15,139.77 -47.3,202.01 -69.2,133.12 -237.6,259.19 -409.7,306.59 -171.5,47.25 -326.8,64.68 -461.4,51.77 -153.4,-14.7 -299.3,-100.99 -371.7,-219.82 -5.8,-9.5 -11.7,-18.94 -17.4,-28.35 -80.7,-131.1 -150.4,-244.32 -129.3,-445.85 l -88.9,-9.29 c -24.3,231.77 60.3,369.13 142,501.99 5.8,9.3 11.5,18.63 17.2,28.03 86.6,142.03 259.1,244.99 439.6,262.28 145.5,13.94 311.6,-4.41 493.6,-54.57 164.2,-45.24 371.7,-171.48 465.3,-351.57 39.6,-76.32 51.2,-162.11 57.2,-235.99 6.5,-79.69 9.9,-214.37 -19.4,-356.97" /></g><g
         transform="scale(1.47974)"
         id="g528"><path
           id="path530"
           style="fill:#b75742;fill-opacity:1;fill-rule:nonzero;stroke:none"
           d="m 16300,9031.88 c 0,-113.43 -77,-205.38 -172.1,-205.38 -95,0 -172,91.95 -172,205.38 0,113.42 77,205.37 172,205.37 95.1,0 172.1,-91.95 172.1,-205.37" /></g><g
         transform="scale(1.47974)"
         id="g532"><path
           id="path534"
           style="fill:#a54737;fill-opacity:1;fill-rule:nonzero;stroke:none"
           d="m 16127.9,9237.25 c -17.6,0 -34.6,-3.18 -50.6,-9.06 70.3,-25.81 121.4,-103.93 121.4,-196.31 0,-92.38 -51.1,-170.51 -121.4,-196.32 16,-5.88 33,-9.06 50.6,-9.06 95.1,0 172.1,91.95 172.1,205.38 0,113.42 -77,205.37 -172.1,205.37" /></g><g
         transform="scale(1.48045)"
         id="g536"><path
           id="path538"
           style="fill:#184655;fill-opacity:1;fill-rule:nonzero;stroke:none"
           d="m 15392,10598.2 c -500.7,0 -908,-446.1 -908,-994.42 0,-76.69 8.1,-151.33 23.2,-223.07 h 139.4 c -17.3,71.17 -26.6,145.92 -26.6,223.07 0,473.32 346.3,858.52 772,858.52 425.7,0 772,-385.2 772,-858.52 0,-241.69 -90.3,-460.37 -235.3,-616.53 -25.9,-27.83 -23.1,-71.54 5.6,-96.4 0.3,-0.3 0.7,-0.6 1,-0.9 27.3,-23.46 68.4,-21.36 92.9,4.99 167.6,180.52 271.8,431.62 271.8,708.84 0,548.32 -407.4,994.42 -908,994.42" /></g><g
         transform="scale(1.46433)"
         id="g540"><path
           id="path542"
           style="fill:#f47458;fill-opacity:1;fill-rule:nonzero;stroke:none"
           d="m 16123.9,9120.88 c 0,0 8.3,-119.05 92.2,-177.18 83.9,-58.12 -116.3,-88.66 -126.6,-78.48 -10.1,10.18 -102.9,70.14 -105.1,130.09 -2.3,59.95 16.9,108.6 20.3,116.52 3.4,7.91 29.4,54.3 36.2,54.3 6.8,0 83,-45.25 83,-45.25" /></g><g
         transform="scale(1.26785)"
         id="g544"><path
           id="path546"
           style="fill:#b75742;fill-opacity:1;fill-rule:nonzero;stroke:none"
           d="m 16300,10541.4 c 0,-132.4 -89.9,-239.7 -200.8,-239.7 -110.9,0 -200.8,107.3 -200.8,239.7 0,132.4 89.9,239.7 200.8,239.7 110.9,0 200.8,-107.3 200.8,-239.7" /></g><g
         transform="scale(1.26785)"
         id="g548"><path
           id="path550"
           style="fill:#a54737;fill-opacity:1;fill-rule:nonzero;stroke:none"
           d="m 16099.2,10781.1 c -20.6,0 -40.5,-3.7 -59.2,-10.6 82.1,-30.1 141.8,-121.3 141.8,-229.1 0,-107.8 -59.7,-199 -141.8,-229.1 18.7,-6.9 38.6,-10.6 59.2,-10.6 110.9,0 200.8,107.3 200.8,239.7 0,132.4 -89.9,239.7 -200.8,239.7" /></g><g
         transform="scale(1.26855)"
         id="g552"><path
           id="path554"
           style="fill:#184655;fill-opacity:1;fill-rule:nonzero;stroke:none"
           d="m 15240.4,12368.6 c -584.3,0 -1059.7,-520.7 -1059.7,-1160.6 0,-89.5 9.5,-176.6 27.1,-260.3 h 162.6 c -20.1,83.1 -31.1,170.3 -31.1,260.3 0,552.5 404.3,1001.9 901.1,1001.9 496.8,0 901,-449.4 901,-1001.9 0,-282 -105.4,-537.2 -274.7,-719.5 -30.1,-32.5 -26.9,-83.5 6.6,-112.5 0.4,-0.3 0.8,-0.7 1.2,-1 31.8,-27.4 79.8,-25 108.4,5.8 195.6,210.7 317.1,503.7 317.1,827.2 0,639.9 -475.3,1160.6 -1059.6,1160.6" /></g><g
         transform="scale(1.25242)"
         id="g556"><path
           id="path558"
           style="fill:#f47458;fill-opacity:1;fill-rule:nonzero;stroke:none"
           d="m 16094.2,10664.1 c 0,0 9.7,-139.2 107.8,-207.2 98,-67.9 -136.1,-103.6 -148,-91.7 -11.9,11.9 -120.3,82 -123,152.1 -2.6,70.1 19.8,126.9 23.8,136.2 4,9.2 34.4,63.5 42.3,63.5 8,0 97.1,-52.9 97.1,-52.9" /></g><g
         transform="scale(1.05595)"
         id="g560"><path
           id="path562"
           style="fill:#b75742;fill-opacity:1;fill-rule:nonzero;stroke:none"
           d="m 16300,12656.7 c 0,-158.9 -108,-287.8 -241.2,-287.8 -133.2,0 -241.1,128.9 -241.1,287.8 0,158.9 107.9,287.8 241.1,287.8 133.2,0 241.2,-128.9 241.2,-287.8" /></g><g
         transform="scale(1.05595)"
         id="g564"><path
           id="path566"
           style="fill:#a54737;fill-opacity:1;fill-rule:nonzero;stroke:none"
           d="m 16058.8,12944.5 c -24.6,0 -48.5,-4.5 -70.9,-12.7 98.5,-36.2 170,-145.6 170,-275.1 0,-129.5 -71.5,-238.9 -170,-275.1 22.4,-8.2 46.3,-12.7 70.9,-12.7 133.2,0 241.2,128.9 241.2,287.8 0,158.9 -108,287.8 -241.2,287.8" /></g><g
         transform="scale(1.05665)"
         id="g568"><path
           id="path570"
           style="fill:#184655;fill-opacity:1;fill-rule:nonzero;stroke:none"
           d="m 15027.9,14848.9 c -701.5,0 -1272.2,-625 -1272.2,-1393.3 0,-107.4 11.4,-212 32.5,-312.5 h 195.2 c -24.1,99.7 -37.3,204.4 -37.3,312.5 0,663.3 485.4,1202.8 1081.8,1202.8 596.4,0 1081.7,-539.5 1081.7,-1202.8 0,-338.6 -126.5,-645 -329.7,-863.8 -36.3,-39 -32.4,-100.2 7.8,-135 0.5,-0.5 1,-0.9 1.4,-1.3 38.3,-32.9 95.8,-29.9 130.2,7 234.9,252.9 380.7,604.7 380.7,993.1 0,768.3 -570.7,1393.3 -1272.1,1393.3" /></g><g
         transform="scale(1.04053)"
         id="g572"><path
           id="path574"
           style="fill:#f47458;fill-opacity:1;fill-rule:nonzero;stroke:none"
           d="m 16052.1,12835.7 c 0,0 11.9,-167.5 129.9,-249.3 118,-81.8 -163.8,-124.8 -178.1,-110.5 -14.3,14.4 -144.8,98.7 -148.1,183.1 -3.2,84.4 23.9,152.8 28.7,164 4.7,11.1 41.4,76.4 51,76.4 9.5,0 116.6,-63.7 116.6,-63.7" /></g><path
         id="path576"
         style="fill:#b75742;fill-opacity:1;fill-rule:nonzero;stroke:none"
         d="m 13758,13364.9 c 0,-167.9 -114,-304 -254.6,-304 -140.6,0 -254.6,136.1 -254.6,304 0,167.8 114,303.9 254.6,303.9 140.6,0 254.6,-136.1 254.6,-303.9" /><path
         id="path578"
         style="fill:#a54737;fill-opacity:1;fill-rule:nonzero;stroke:none"
         d="m 13503.4,13668.8 c -26.1,0 -51.2,-4.8 -74.9,-13.5 104,-38.1 179.6,-153.7 179.6,-290.4 0,-136.7 -75.6,-252.3 -179.6,-290.5 23.7,-8.7 48.8,-13.5 74.9,-13.5 140.6,0 254.6,136.1 254.6,304 0,167.8 -114,303.9 -254.6,303.9" /><path
         id="path580"
         style="fill:#184655;fill-opacity:1;fill-rule:nonzero;stroke:none"
         d="m 12425.3,15690.1 c -741.2,0 -1344.3,-660.4 -1344.3,-1472.2 0,-113.5 12,-224 34.4,-330.2 h 206.3 c -25.6,105.3 -39.4,216 -39.4,330.2 0,700.8 512.7,1270.9 1143,1270.9 630.2,0 1142.9,-570.1 1142.9,-1270.9 0,-357.8 -133.6,-681.6 -348.4,-912.7 -38.2,-41.3 -34.2,-105.9 8.3,-142.8 0.6,-0.4 1.1,-0.8 1.6,-1.3 40.3,-34.7 101.2,-31.6 137.4,7.4 248.3,267.3 402.4,639 402.4,1049.4 0,811.8 -603,1472.2 -1344.2,1472.2" /><path
         id="path582"
         style="fill:#f47458;fill-opacity:1;fill-rule:nonzero;stroke:none"
         d="m 13248.8,13355.9 c 0,0 12.3,-174.3 135.1,-259.4 122.8,-85.1 -170.4,-129.8 -185.3,-114.9 -14.9,14.9 -150.8,102.7 -154.1,190.5 -3.3,87.8 24.9,159 29.8,170.6 5,11.6 43.1,79.5 53,79.5 10,0 121.5,-66.3 121.5,-66.3" /><g
         transform="scale(1.60094)"
         id="g584"><path
           id="path586"
           style="fill:#f7cc7f;fill-opacity:1;fill-rule:nonzero;stroke:none"
           d="m 16296.8,990.165 -10,437.865 -478.5,-93.44 c 0,0 -1424.8,-165.53 -1431,-165.53 -6.2,0 -1375.6,-401.449 -1375.6,-401.449 l -171.1,-28.985 h 3224.7 c 136.6,0 244.7,112.622 241.5,251.539" /></g><g
         transform="scale(1.59964)"
         id="g588"><path
           id="path590"
           style="fill:#fae0b2;fill-opacity:1;fill-rule:nonzero;stroke:none"
           d="m 12841,739.227 c 0,0 1138.7,248.617 2038.1,1808.023 0,0 441.1,-1202.26 1420.9,-1118.06 0,0 -1313.2,-610.944 -3459,-689.963" /></g><path
         id="path592"
         style="fill:#0e2e35;fill-opacity:1;fill-rule:nonzero;stroke:none"
         d="m 13743.2,10948.8 c -47.6,3.6 -95,9.3 -141.8,18.8 -52.9,10.7 -120.8,21.7 -160.9,17.9 -84.4,-8.1 -221.8,-51.8 -277.8,-154.7 -69.8,-128.1 -261.9,-86.3 -89.8,-621.3 194.8,-605.6 521.1,-451.1 526.8,-438.6 5.7,12.6 206.5,471.4 206.5,471.4 0,0 161.7,-200.7 159.6,-192.4 -2.1,8.1 349.3,855.5 -222.6,898.9" /><path
         id="path594"
         style="fill:#f7a491;fill-opacity:1;fill-rule:nonzero;stroke:none"
         d="m 13876,8734.9 c 65,52.9 568.3,-167.9 561.9,-244.8 -6.3,-76.9 351.2,-822.2 351.2,-822.2 l 618,492.7 0.2,-0.1 c 5.5,17.8 64.1,209.4 66.9,243.7 3,35.9 107.4,98.9 155.9,89.6 48.5,-9.3 -41.5,-70.1 -47.4,-81.3 -16,-30.4 46.1,-41.8 46.1,-41.8 0,0 178.6,98 182.4,155.6 3.8,57.7 40.6,178.5 79.2,153.2 19.9,-13 19.7,-98.7 13.5,-139.4 11.5,46.1 27.7,98.3 43.5,103.4 28.9,9.5 43.2,-27.3 38,-45.3 -5.2,-18 -51.9,-214 -66.1,-236.1 -13.8,-21.5 -302.1,-253.8 -343.7,-304.2 0,0 -799.2,-913.7 -856.1,-937.6 -50,-21 -228,293.9 -396.2,502.9 -168.2,209 -650.7,946.3 -447.3,1111.7" /><path
         id="path596"
         style="fill:#f48c7f;fill-opacity:1;fill-rule:nonzero;stroke:none"
         d="m 12263.2,2016.4 c 0,0 -109.8,-107.2 -112.3,-146.5 -2.5,-39.3 -9.7,-460.7 35.1,-500 44.9,-39.3 176.6,-67.2 134.2,-111.5 -32,-33.4 -278.2,-26.3 -441.3,-17.3 -47.7,2.6 -107.4,382.7 -126.3,438.5 -27.4,81.2 -94,263.9 -69.1,320.4 12.1,27.6 70.2,84.2 152,137 86.1,55.6 168.4,179.4 168.4,179.4 l 259.3,-300" /><path
         id="path598"
         style="fill:#f7a491;fill-opacity:1;fill-rule:nonzero;stroke:none"
         d="m 13401,1766.8 c 0,0 -98.3,-277.6 -98.4,-278.3 -7.3,-44 -36.1,-152.7 -36.1,-192.7 0,-150.2 677.5,127.5 525.7,194.1 -13.8,6 -56.9,54.2 -61.4,105.3 -7,78.8 57.1,177.6 57.1,177.6 l -386.9,-6" /><path
         id="path600"
         style="fill:#355389;fill-opacity:1;fill-rule:nonzero;stroke:none"
         d="m 14463.8,6937.2 c 0,0 49.4,-497.8 49.4,-505.2 0,-805.2 159.6,-2378 129.3,-2529.4 -74.1,-369.2 -871.1,-2252.8 -871.1,-2252.8 l -430.7,51.5 561.3,2255.2 -206.6,907.7 -292.2,1794.3 1060.6,278.7" /><path
         id="path602"
         style="fill:#466eb6;fill-opacity:1;fill-rule:nonzero;stroke:none"
         d="m 13018.2,6496.9 -81.8,-471.7 -221.1,-1941.6 -842.2,-1897.7 c 0,0 118.5,-276.1 293.3,-314.9 l 1340.3,1948.3 832.6,2493 -29.2,553.9 -1291.9,-369.3" /><path
         id="path604"
         style="fill:#3c8f7c;fill-opacity:1;fill-rule:nonzero;stroke:none"
         d="m 14635.6,8122.3 -597.3,-60.9 c 0,0 -27.4,489.6 -27.4,723.2 0,283.4 24.2,648.4 58.4,640.6 96,-22.1 225.4,-75.1 302.4,-180.9 266.5,-366.2 263.9,-1122 263.9,-1122" /><path
         id="path606"
         style="fill:#96d9c9;fill-opacity:1;fill-rule:nonzero;stroke:none"
         d="m 14342.2,8834.6 c 12.5,-86.4 242.1,-2435.3 242.1,-2435.3 -1087.6,-525.3 -1687.7,-93.6 -1687.7,-93.6 0,0 35.6,1649.5 -7,1874 -28.3,148.5 -63.4,1135.5 32.8,1163.2 123.5,35.4 265.2,73.1 419.5,89.1 131.8,13.7 643.7,21.6 735.3,-9.1 0,0 212.4,-225 265,-588.3" /><path
         id="path608"
         style="fill:#184655;fill-opacity:1;fill-rule:nonzero;stroke:none"
         d="m 11840.9,2139.7 c 0,0 253.1,-712.7 352.2,-747.1 26.3,-9.2 152.5,-32.3 176.3,-88.2 7.2,-16.8 0,-73 0,-73 h -527.6 c 0,0 -66.7,314.1 -93.1,452 0,0 -139.6,337.2 -124.1,367.8 15.5,30.6 216.3,88.5 216.3,88.5" /><path
         id="path610"
         style="fill:#184655;fill-opacity:1;fill-rule:nonzero;stroke:none"
         d="m 13227.9,1246.2 77.6,245.1 c 0,0 163,-68.9 244.5,-57.4 81.4,11.5 240.5,57.4 240.5,57.4 325.2,-107 591.6,-158.9 543.1,-245.1 v 0 h -1105.7" /><path
         id="path612"
         style="fill:#f7a491;fill-opacity:1;fill-rule:nonzero;stroke:none"
         d="m 14719.5,7120.3 c 2.4,1 11.3,8 16.4,12.2 -19.4,230.1 -15.9,453.1 56.3,528.5 -1.7,3.6 -17.5,37.1 -34,71.9 -83.7,-64.7 -123.4,-236.7 -107.8,-515.9 1,-19.2 6.6,-33.8 11,-57.8 24.2,-26.7 46.3,-43.9 58.1,-38.9" /><path
         id="path614"
         style="fill:#f7a491;fill-opacity:1;fill-rule:nonzero;stroke:none"
         d="m 13780.7,9673.5 32.1,-238.1 c 0,0 71.9,-343 -20.6,-409.2 -92.5,-66.1 -393.3,419 -393.3,419 l 31.8,603.3 350,-375" /><path
         id="path616"
         style="fill:#f47458;fill-opacity:1;fill-rule:nonzero;stroke:none"
         d="m 13420.4,9853 c 76.4,-205.8 258.4,-332.3 387.5,-381.4 l -27.2,201.9 -350,375 -10.3,-195.5" /><g
         transform="scale(1.06097)"
         id="g618"><path
           id="path620"
           style="fill:#f2e9da;fill-opacity:1;fill-rule:nonzero;stroke:none"
           d="m 15370.8,8322.49 929.2,1412.6 -1595.7,-558.86 -212.6,-615 879.1,-238.74" /></g><g
         transform="scale(1.06097)"
         id="g622"><path
           id="path624"
           style="fill:#e0d5c3;fill-opacity:1;fill-rule:nonzero;stroke:none"
           d="m 14491.7,8561.23 226.2,-61.46 1582.1,1235.32 -1595.7,-558.86 -212.6,-615" /></g><path
         id="path626"
         style="fill:#e8ba70;fill-opacity:1;fill-rule:nonzero;stroke:none"
         d="m 15600.8,9735.7 438.2,153.5 -238.8,-408.9 -5378.4,-4199.3 -36.7,382.4 5215.7,4072.3" /><g
         transform="scale(1.00007)"
         id="g628"><path
           id="path630"
           style="fill:#f7cc7f;fill-opacity:1;fill-rule:nonzero;stroke:none"
           d="m 15799.1,9479.66 500.9,73.19 -192.5,-468.16 -5378,-4199.02 -308.4,394.97 5378,4199.02" /></g><g
         transform="scale(1.01614)"
         id="g632"><path
           id="path634"
           style="fill:#fae0b2;fill-opacity:1;fill-rule:nonzero;stroke:none"
           d="m 15852.7,8940.98 447.3,130.5 -251,-381.84 -5132.9,-4007.61 -356.3,126.36 5292.9,4132.59" /></g><path
         id="path636"
         style="fill:#50bfa5;fill-opacity:1;fill-rule:nonzero;stroke:none"
         d="m 10817.9,5590.2 -396.1,-309.2 308.4,-395 396.1,309.2 -308.4,395" /><path
         id="path638"
         style="fill:#96d9c9;fill-opacity:1;fill-rule:nonzero;stroke:none"
         d="m 11126.3,5195.2 -396.1,-309.2 362.1,-128.4 233.4,182.3 -199.4,255.3" /><path
         id="path640"
         style="fill:#3c8f7c;fill-opacity:1;fill-rule:nonzero;stroke:none"
         d="m 10618.5,5845.6 -233.4,-182.2 36.7,-382.4 396.1,309.2 -199.4,255.4" /><path
         id="path642"
         style="fill:#fef8f8;fill-opacity:1;fill-rule:nonzero;stroke:none"
         d="m 11593.1,5559.7 199.4,-255.4 -466.8,-364.4 -199.4,255.3 466.8,364.5" /><path
         id="path644"
         style="fill:#eddfca;fill-opacity:1;fill-rule:nonzero;stroke:none"
         d="m 11085.3,6210 199.3,-255.3 -466.7,-364.5 -199.4,255.4 466.8,364.4" /><path
         id="path646"
         style="fill:#f2e9da;fill-opacity:1;fill-rule:nonzero;stroke:none"
         d="m 11284.6,5954.7 308.5,-395 -466.8,-364.5 -308.4,395 466.7,364.5" /><g
         transform="scale(1.06097)"
         id="g648"><path
           id="path650"
           style="fill:#e86752;fill-opacity:1;fill-rule:nonzero;stroke:none"
           d="m 15984.6,9255.69 c 3.2,4.81 315.4,479.4 315.4,479.4 l -541.6,-189.68 192.5,-82.88 33.7,-206.84" /></g><g
         transform="scale(1.06097)"
         id="g652"><path
           id="path654"
           style="fill:#d85648;fill-opacity:1;fill-rule:nonzero;stroke:none"
           d="m 15950.9,9462.53 v 0 l 349.1,272.56 v 0 l -541.6,-189.68 192.5,-82.88" /></g><path
         id="path656"
         style="fill:#f8a492;fill-opacity:1;fill-rule:nonzero;stroke:none"
         d="m 11819.5,6374.4 c -0.7,5 -0.8,10.1 -0.3,15.1 16,162.7 151.1,1528.6 173.8,1586.7 20.6,52.4 626.3,918.8 626.3,918.8 l 297.8,-405.6 -582.6,-777.1 c -13.1,-49.4 -223.2,-971.5 -223.2,-971.5 0,0 -43.1,-168 -62.4,-268.7 8.8,-24.3 17.4,-47.2 25.1,-66 19.3,-40.2 42,-73.1 62.7,-100.9 26.1,-34.9 69.1,-111.1 74.4,-131.5 6.2,-23.7 17.3,-73.1 23.6,-102.8 6.3,-29.8 14.9,-64.4 16.4,-80.6 0.9,-9.8 11,-29.4 18.8,-43.2 11.6,-20.7 -8.2,-45 -30.7,-37.5 -21.1,7 -37.6,34.4 -47.8,51.5 -28.6,48.2 -43.9,136.1 -51.1,131.5 -7.1,-4.7 -32.2,-153.9 -36.2,-170.8 -3.9,-16.9 -34.1,-190.2 -51.1,-221.9 -17,-31.7 -39.5,-26.4 -45.5,-6.6 -5.1,17.1 18.8,259.6 18.8,259.6 0,0 3,31 -10.6,21.3 -13.5,-9.6 -35.6,-229.8 -45.1,-262 -9.4,-32.2 -30.9,-49.3 -49.1,-23.4 -22.2,31.5 16,265 16,265 0,0 4.2,29.3 -8.3,26.6 -12.6,-2.7 -28.3,-190.4 -38,-206.6 -9.8,-16.2 -34.4,-22 -46.2,5 -13.8,31.9 22,240.1 22,240.1 0,0 -1.7,16.5 -9.5,11 -7.9,-5.5 -32.7,-164.5 -48.9,-179.2 -13.6,-12.4 -24.9,-0.3 -24.9,-0.3 -29.7,20.2 15.8,171.4 15.4,246.7 -0.5,75.1 34.4,159.6 24,249.2 -0.6,5.6 -2.5,19.4 -3.6,28.1" /><path
         id="path658"
         style="fill:#3c8f7c;fill-opacity:1;fill-rule:nonzero;stroke:none"
         d="m 12146.1,8346.3 517.4,-347.4 c 0,0 291.7,434 448.2,588.5 196.1,193.5 -71.4,786.4 -197.8,752.9 -282.6,-75.1 -767.8,-994 -767.8,-994" /><path
         id="path660"
         style="fill:#f7a491;fill-opacity:1;fill-rule:nonzero;stroke:none"
         d="m 13506.8,10713 c 173.7,75 372.8,-29 414,-210.7 18,-79 36.3,-178.7 46.7,-288.4 25,-263.8 -92.2,-531.4 -212.2,-540.6 -120,-9.1 -464.6,136.6 -505.2,510.8 -25.1,231 74.5,450.2 256.7,528.9" /><path
         id="path662"
         style="fill:#f7a491;fill-opacity:1;fill-rule:nonzero;stroke:none"
         d="m 13340.8,10161.2 c 4.4,-58.3 -30.6,-108.5 -78.3,-112.1 -47.6,-3.7 -89.9,40.7 -94.3,98.9 -4.5,58.3 30.6,108.5 78.2,112.1 47.7,3.7 89.9,-40.6 94.4,-98.9" /><path
         id="path664"
         style="fill:#0e2e35;fill-opacity:1;fill-rule:nonzero;stroke:none"
         d="m 13246.4,10260.1 c 0,0 147.7,0.8 176.7,103 29,102.1 164.7,341 419.2,320.7 254.6,-20.3 -255.3,141.5 -274.1,136.7 -18.7,-4.7 -244.1,-60.2 -244.1,-60.2 0,0 -137.4,-186.1 -139.7,-203.3 -2.3,-17.2 -9.2,-200.2 -9.2,-200.2 l 71.2,-96.7" /><path
         id="path666"
         style="fill:#ffffff;fill-opacity:1;fill-rule:nonzero;stroke:none"
         d="m 13862.3,10004.6 -246.5,-19.6 c 0,0 13.2,-93.2 121.8,-87.7 132.4,6.7 124.7,107.3 124.7,107.3" /></g></g></svg>