<svg class="svg-icon" style="width: 1em;height: 1em;vertical-align: middle;fill: currentColor;overflow: hidden;" viewBox="0 0 1024 1024" version="1.1" xmlns="http://www.w3.org/2000/svg"><path d="M845.909333 482.56a173.226667 173.226667 0 0 1 28.757334 87.466667l-1.152 7.850666a176.64 176.64 0 0 1-40.106667 117.504 208.469333 208.469333 0 0 1-133.248 65.706667 1734.869333 1734.869333 0 0 1-378.538667 0 206.165333 206.165333 0 0 1-130.986666-65.706667 174.08 174.08 0 0 1-41.258667-116.736v-5.248a179.2 179.2 0 0 1 31.061333-89.728l2.986667-3.754666c18.986667-21.333333 32.042667-47.232 37.888-75.093334V327.466667a32.597333 32.597333 0 0 1 62.464 6.784v77.312a19.370667 19.370667 0 0 1 0 4.138666 224.554667 224.554667 0 0 1-52.266667 104.362667 107.861333 107.861333 0 0 0-16.64 53.333333v8.234667c-0.853333 26.581333 8.021333 52.608 25.002667 73.216a141.653333 141.653333 0 0 0 88.576 42.069333c121.770667 13.141333 244.608 13.141333 366.421333 0a142.037333 142.037333 0 0 0 90.453334-43.946666c16.128-20.138667 24.576-45.226667 23.893333-70.954667v-8.618667a111.914667 111.914667 0 0 0-16.298667-53.717333 224.682667 224.682667 0 0 1-55.296-104.362667 19.626667 19.626667 0 0 1 0-4.138666V333.482667c-10.965333-113.365333-124.885333-183.594667-224.085333-183.594667a245.76 245.76 0 0 0-120.362667 31.146667 32.768 32.768 0 0 1-33.152 0.256 32.213333 32.213333 0 0 1 1.365334-56.533334A309.333333 309.333333 0 0 1 510.506667 85.333333c130.986667 0 277.845333 92.373333 294.485333 240.64V403.328c5.717333 27.904 18.773333 53.802667 37.888 75.093333 1.109333 1.28 2.133333 2.645333 2.986667 4.096z m-323.2 389.12c22.272-3.285333 42.24-15.274667 55.552-33.28h0.426667a32.853333 32.853333 0 0 1 45.952-4.266667 32.213333 32.213333 0 0 1 4.352 45.610667A151.850667 151.850667 0 0 1 510.122667 938.666667a151.850667 151.850667 0 0 1-118.485334-58.922667 32.213333 32.213333 0 0 1 4.352-45.653333 32.853333 32.853333 0 0 1 45.994667 4.352 84.906667 84.906667 0 0 0 80.725333 33.28z" fill="#200E32" /></svg>